<svg width="115" height="50" viewBox="0 0 115 50" fill="none" xmlns="http://www.w3.org/2000/svg">
<g clip-path="url(#clip0_659_457)">
<path d="M109.268 49.9169L108.672 48.9235H105.149L104.559 49.9169H102.822L106.147 44.5717H107.685L111.009 49.9169H109.268ZM105.845 47.755H107.975L106.91 45.9703L105.845 47.755ZM99.5742 49.9169V45.8939H96.731V44.5717H103.896V45.8939H101.054V49.9169H99.5742ZM94.307 49.9169V44.5717H95.787V49.9169H94.307ZM88.6206 49.9169L85.2949 44.5717H87.0339L89.3834 48.5251L91.7418 44.5717H93.4809L90.1551 49.9169H88.6206ZM80.7359 49.9169V44.5717H82.2159V49.9169H80.7359ZM71.9884 49.9169V44.5717H77.6715C77.8837 44.5634 78.0951 44.5979 78.2942 44.6727C78.4932 44.7474 78.6759 44.8609 78.8312 45.0072C78.9797 45.1506 79.0959 45.3237 79.1737 45.5157C79.2515 45.7077 79.289 45.9145 79.2827 46.1218V48.3634C79.2891 48.5709 79.2515 48.7774 79.1737 48.9696C79.0959 49.1617 78.9797 49.3356 78.8312 49.4792C78.6759 49.6254 78.4932 49.7389 78.2942 49.8137C78.0951 49.8884 77.8837 49.9229 77.6715 49.9147L71.9884 49.9169ZM73.4684 48.5946H77.3457C77.4054 48.5967 77.4656 48.5871 77.5214 48.5655C77.5771 48.5438 77.6274 48.5108 77.6704 48.4689C77.7132 48.4271 77.7472 48.3766 77.7693 48.3208C77.7914 48.2649 77.8007 48.2046 77.7982 48.1445V46.3452C77.8006 46.2851 77.7914 46.2259 77.7693 46.1701C77.7473 46.1142 77.7131 46.0627 77.6704 46.0208C77.6273 45.9791 77.5771 45.9468 77.5214 45.9254C77.4656 45.904 77.4053 45.8939 77.3457 45.8962H73.4684V48.5946ZM61.444 49.9169V44.5717H68.0044V45.8939H62.924V46.6011H67.8231V47.8763H62.924V48.5924H68.0188V49.9136L61.444 49.9169ZM58.4707 49.9169L54.6223 46.3385V49.9169H53.1424V44.5717H54.6979L58.5463 48.1501V44.5717H60.0263V49.9169H58.4707ZM45.1687 49.9169V44.5717H51.7291V45.8939H46.6487V46.6011H51.5445V47.8763H46.6487V48.5924H51.7435V49.9136L45.1687 49.9169ZM42.2288 49.9169V44.5717H43.7088V49.9169H42.2288ZM34.2952 49.9169V44.5717H39.449C39.682 44.5672 39.9136 44.6107 40.1295 44.6996C40.3453 44.7886 40.5409 44.9213 40.7043 45.0891C40.8704 45.2519 41.002 45.4477 41.0902 45.6638C41.1783 45.8799 41.2213 46.1115 41.2169 46.3452V46.5046C41.2258 46.7337 41.1884 46.9625 41.108 47.1769C41.0276 47.3914 40.9057 47.587 40.7488 47.7528C40.5923 47.9131 40.4043 48.0386 40.1973 48.1221C39.9903 48.2056 39.7685 48.245 39.5457 48.2377H35.7752V49.9169H34.2952ZM35.7752 46.9626H39.2299C39.3633 46.9689 39.4939 46.923 39.5957 46.8357C39.6414 46.7957 39.6781 46.7468 39.7025 46.6909C39.7269 46.6351 39.7385 46.5746 39.737 46.5136V46.3519C39.7383 46.2898 39.7255 46.2279 39.7003 46.1712C39.6751 46.1145 39.6382 46.0644 39.5913 46.0242C39.489 45.9363 39.3574 45.8908 39.2232 45.8962H35.7752V46.9626ZM23.4561 49.9169V44.5717H30.0165V45.8939H24.9383V46.6011H29.8341V47.8763H24.9383V48.5924H30.0298V49.9136L23.4561 49.9169ZM15.5681 49.9169V44.5717H22.1274V45.8939H17.0492V46.6011H21.945V47.8763H17.0492V48.5924H22.1418V49.9136L15.5681 49.9169ZM7.02849 49.9169V44.5717H12.7127C12.9247 44.5633 13.1365 44.5979 13.3353 44.6727C13.5342 44.7475 13.7163 44.8609 13.8713 45.0072C14.0202 45.1503 14.1371 45.3236 14.2149 45.5157C14.2927 45.7077 14.3296 45.9144 14.3227 46.1218V48.3634C14.3296 48.571 14.2927 48.7773 14.2149 48.9696C14.1371 49.1618 14.0202 49.3359 13.8713 49.4792C13.7163 49.6255 13.5342 49.7389 13.3353 49.8137C13.1365 49.8884 12.9247 49.923 12.7127 49.9147L7.02849 49.9169ZM8.50847 48.5946H12.3869C12.4467 48.5968 12.5055 48.5871 12.5614 48.5655C12.6174 48.5438 12.6684 48.5109 12.7116 48.4689C12.7541 48.4269 12.7885 48.3766 12.8105 48.3208C12.8326 48.2649 12.8428 48.2046 12.8405 48.1445V46.3452C12.8427 46.2851 12.8315 46.2259 12.8094 46.1701C12.7873 46.1143 12.7541 46.0629 12.7116 46.0208C12.6684 45.979 12.6174 45.9468 12.5614 45.9254C12.5055 45.9039 12.4467 45.8938 12.3869 45.8962H8.50847V48.5946ZM4.0463 49.9169V44.5717H5.52628V49.9169H4.0463ZM114.308 39.5721H0V0H115V39.5755L114.308 39.5721ZM1.37879 38.1791H113.617V1.38964H1.37879V38.1791ZM42.8314 34.4199C42.1282 33.9969 41.5405 33.4033 41.1213 32.6935C40.7021 31.9837 40.4649 31.1799 40.4308 30.3543L40.4275 30.3161H45.5546L45.5601 30.3442C45.6404 30.7903 45.8596 31.1991 46.1861 31.5104C46.6729 31.9392 47.4958 32.1424 48.6913 32.1424C50.3491 32.1424 51.4386 31.5947 52.0215 30.4654C52.3773 29.7493 52.556 28.5574 52.5719 26.8229V25.8015C52.2192 26.4283 51.7508 26.9812 51.192 27.4302C50.1339 28.1834 48.8585 28.5619 47.5649 28.5066C46.5239 28.5456 45.4872 28.3476 44.5327 27.9263C43.5782 27.505 42.7306 26.871 42.052 26.0731C40.8541 24.5505 40.1585 22.6878 40.0627 20.7458H28.4665C28.5376 22.5193 29.0823 23.7374 30.131 24.4713C30.813 24.9226 31.6141 25.1554 32.4294 25.1392C33.2735 25.1765 34.0996 24.8856 34.7377 24.3265C35.0978 23.9752 35.3889 23.5587 35.5961 23.0985L35.6073 23.0805H40.4208L40.4175 23.1187C40.2204 24.357 39.64 25.5003 38.7596 26.3851C37.2418 28.1328 35.0789 29.0185 32.3337 29.0185C30.1294 29.0373 27.9926 28.2492 26.3193 26.8005C24.9635 25.5631 24.1016 23.8688 23.8953 22.0355C23.773 23.0702 23.4247 24.0648 22.8757 24.9472C22.4272 25.692 21.8426 26.344 21.1533 26.8689C20.3374 27.4813 19.3953 27.8998 18.3968 28.0936C17.2711 28.3119 16.1274 28.4225 14.981 28.4236H4.03963V4.0634H15.7627C18.7049 4.09731 20.8241 4.97164 22.0618 6.66532C22.8183 7.7558 23.2094 9.06103 23.1781 10.392C23.2485 11.689 22.85 12.9688 22.0584 13.9929C21.5597 14.5536 20.9606 15.0124 20.2916 15.3466C21.4063 15.7324 22.3613 16.4815 23.008 17.476C23.3326 17.9926 23.5743 18.5584 23.7219 19.1518C23.7919 16.2277 24.5562 14.0217 26.0591 12.4113C26.8511 11.5905 27.8035 10.9443 28.8556 10.5143C29.9077 10.0844 31.0368 9.87918 32.1714 9.91267C33.5545 9.892 34.925 10.1805 36.1855 10.7557C37.3994 11.3461 38.4237 12.2705 39.1399 13.4227C39.71 14.3238 40.1184 15.3194 40.3463 16.3636C40.6445 15.0468 41.2042 13.804 41.9919 12.7121C42.6328 11.8212 43.4822 11.1045 44.4638 10.6243C45.4453 10.1442 46.5285 9.91549 47.6183 9.95981C48.421 9.94316 49.2191 10.086 49.9678 10.3785C51.121 10.8775 52.0706 11.7589 52.6598 12.8772V10.392H57.252V27.4672C57.252 29.8178 56.8718 31.5399 56.0878 32.7261C54.7705 34.7318 52.1883 35.757 48.4189 35.7714C46.4685 35.86 44.533 35.3926 42.8337 34.4221L42.8314 34.4199ZM45.3789 16.441C45.0277 17.4125 44.8629 18.4426 44.893 19.4762C44.8718 20.4262 45.0487 21.369 45.4122 22.2454C45.651 22.9401 46.1087 23.5368 46.7154 23.9437C47.3221 24.3506 48.0445 24.5463 48.7714 24.4994C49.2875 24.5058 49.7986 24.3989 50.2702 24.1873C50.7419 23.9757 51.1623 23.6635 51.5034 23.2725C52.2435 22.4599 52.6209 21.1316 52.6209 19.327C52.6209 17.6344 52.2719 16.3692 51.5512 15.46C51.2184 15.028 50.7877 14.6831 50.2958 14.4531C49.8039 14.2232 49.2652 14.1156 48.7236 14.1388C47.994 14.1039 47.273 14.31 46.6698 14.7259C46.0667 15.1418 45.6143 15.7445 45.3811 16.4433L45.3789 16.441ZM8.90654 24.1357H14.7797C15.6167 24.1782 16.4532 24.0332 17.2282 23.7114C18.2746 23.1941 18.7895 22.2121 18.8049 20.711C18.8469 20.1749 18.7221 19.6387 18.448 19.1777C18.1739 18.7166 17.7644 18.354 17.276 18.1394C16.5052 17.8425 15.6832 17.7043 14.8587 17.733H8.9032L8.90654 24.1357ZM29.6818 14.8684C29.0627 15.6444 28.6824 16.5864 28.5877 17.5781H35.7385C35.7402 16.5479 35.3408 15.5582 34.6265 14.8224C34.3 14.5061 33.9154 14.2581 33.4935 14.0928C33.0716 13.9275 32.6216 13.8482 32.1692 13.8593C31.7066 13.8306 31.2425 13.9066 30.8126 14.0816C30.3828 14.2566 29.9974 14.526 29.684 14.8707L29.6818 14.8684ZM8.90654 13.6404H14.7797C15.6652 13.6783 16.5442 13.4746 17.3249 13.0511C17.9666 12.6638 18.2864 11.9714 18.3034 10.9397C18.3535 10.4813 18.2558 10.0185 18.0243 9.62082C17.7929 9.22315 17.4402 8.91198 17.0192 8.73294C16.0899 8.4661 15.1264 8.33892 14.1604 8.35578H8.90654V13.6404ZM77.9472 26.8016C76.2171 25.3332 75.3398 22.9092 75.3398 19.5896C75.3398 16.4523 76.105 14.105 77.6826 12.4124C78.475 11.5915 79.4277 10.9454 80.4802 10.5154C81.5327 10.0855 82.6622 9.88128 83.7971 9.91492C85.1802 9.89458 86.5506 10.182 87.8111 10.7568C89.0249 11.3472 90.0485 12.2716 90.7644 13.4238C91.4754 14.5526 91.9389 15.8215 92.1243 17.146C92.2557 18.3288 92.305 19.519 92.2722 20.7087V20.7458H80.101C80.1699 22.5193 80.7147 23.7363 81.7645 24.4702C82.4461 24.9213 83.2469 25.1541 84.0617 25.1381C84.9068 25.1744 85.7345 24.8828 86.3734 24.3231C86.7306 23.9712 87.0201 23.5557 87.2274 23.0974L87.2374 23.0772H92.0498L92.0454 23.1176C91.8501 24.3565 91.2694 25.5003 90.3875 26.384C88.8697 28.1317 86.7091 29.0151 83.9616 29.0151C81.7589 29.0364 79.6227 28.2514 77.9495 26.805L77.9472 26.8016ZM81.3097 14.8662C80.6897 15.6418 80.309 16.5839 80.2145 17.5759H87.3675C87.3678 16.5457 86.9682 15.5564 86.2544 14.8202C85.9277 14.5037 85.5413 14.2559 85.1192 14.0906C84.6971 13.9252 84.2475 13.8459 83.7949 13.8571C83.3324 13.8291 82.8689 13.9063 82.4394 14.0816C82.0099 14.2569 81.6252 14.5262 81.3119 14.8707L81.3097 14.8662ZM106.171 28.4236V10.392H110.958V28.4236H106.171ZM99.5108 28.4236V4.0634H104.235V28.4236H99.5108ZM92.8237 28.4236V4.0634H97.5483V28.4236H92.8237ZM70.2482 28.4236V17.4648C70.2807 16.6617 70.1131 15.8633 69.7612 15.1423C69.3434 14.3285 68.5614 13.9243 67.3761 13.9076C66.8486 13.8744 66.3208 13.9694 65.8372 14.1849C65.3537 14.4003 64.9287 14.7299 64.5974 15.1457C63.9181 16.1872 63.5889 17.4219 63.659 18.6669V28.4247H58.9511V4.14758H63.659V12.647C64.2105 11.7479 65.002 11.0243 65.9429 10.5592C66.8288 10.1503 67.7908 9.93614 68.7649 9.93063C69.7942 9.91094 70.8166 10.1081 71.766 10.5098C72.66 10.8802 73.4336 11.4951 73.9999 12.2856C74.4672 12.8975 74.778 13.616 74.905 14.3779C75.0254 15.5284 75.08 16.6851 75.0685 17.8419V28.4247L70.2482 28.4236ZM106.171 8.32099V3.91523H110.958V8.32099H106.171Z" fill="black"/>
</g>
<defs>
<clipPath id="clip0_659_457">
<rect width="115" height="50" fill="white"/>
</clipPath>
</defs>
</svg>
