<?xml version="1.0" encoding="UTF-8" standalone="no"?>
<!-- Created with Inkscape (http://www.inkscape.org/) -->
<svg
   xmlns:svg="http://www.w3.org/2000/svg"
   xmlns="http://www.w3.org/2000/svg"
   version="1.0"
   width="200"
   height="48"
   id="svg2">
  <defs
     id="defs4" />
  <g
     transform="translate(-89.31364,-383.48475)"
     id="layer1">
    <g
       transform="matrix(1.0414707,0,0,1.0414707,-222.4514,88.997436)"
       id="g2462">
      <path
         d="M 322.084,326.684 C 327.597,326.684 332.659,324.547 336.484,320.723 C 340.309,316.897 342.446,311.834 342.446,306.322 C 342.446,300.922 340.309,295.86 336.484,292.034 C 332.659,288.209 327.597,286.072 322.084,286.072 C 310.947,286.072 301.834,295.185 301.834,306.322 C 301.834,311.834 303.971,316.897 307.796,320.723 C 311.622,324.547 316.685,326.684 322.084,326.684 L 322.084,326.684 z M 305.885,306.322 C 305.885,302.047 307.573,297.997 310.61,294.847 C 313.76,291.81 317.81,290.122 322.085,290.122 C 326.473,290.122 330.523,291.81 333.56,294.847 C 336.71,297.997 338.397,302.047 338.397,306.322 C 338.397,315.322 331.084,322.635 322.084,322.635 C 317.809,322.635 313.759,320.947 310.609,317.797 C 307.572,314.76 305.885,310.709 305.885,306.322 L 305.885,306.322 z"
         id="path2384"
         style="fill:#006cb7;fill-rule:evenodd" />
      <polygon
         points="330.41,299.234 332.997,294.734 319.61,294.734 315.11,299.234 315.11,303.509 313.872,303.509 311.172,308.01 315.11,308.01 315.11,320.723 319.61,316.223 319.61,308.01 325.235,308.01 327.822,303.509 319.61,303.509 319.61,299.234 330.41,299.234 "
         id="polygon2386"
         style="fill:#006cb7;fill-rule:evenodd" />
      <polygon
         points="349.31,294.959 356.509,294.959 356.509,297.997 353.247,297.997 353.247,299.122 356.06,299.122 356.06,301.934 353.247,301.934 353.247,305.647 349.31,305.647 349.31,294.959 "
         id="polygon2388"
         style="fill-rule:evenodd" />
      <path
         d="M 358.084,298.109 L 361.796,298.109 L 361.796,305.647 L 358.084,305.647 L 358.084,298.109 L 358.084,298.109 z M 361.909,295.747 C 361.909,296.985 361.009,297.547 359.885,297.547 C 358.872,297.547 357.86,296.984 357.86,295.747 C 357.86,294.622 358.76,293.947 359.885,293.947 C 361.009,293.947 361.909,294.622 361.909,295.747 L 361.909,295.747 z"
         id="path2390"
         style="fill-rule:evenodd" />
      <path
         d="M 363.935,302.722 L 364.16,302.835 C 364.61,303.172 365.397,303.51 366.073,303.51 C 366.298,303.51 366.523,303.397 366.523,303.173 C 366.523,302.723 366.185,302.723 365.848,302.723 C 364.61,302.498 363.485,302.048 363.485,300.586 C 363.485,298.673 365.398,297.886 366.973,297.886 C 367.985,297.886 369.11,298.111 369.898,298.561 L 368.998,300.698 C 368.548,300.361 367.986,300.023 367.311,300.023 C 367.086,300.023 366.861,300.135 366.861,300.36 C 366.861,300.697 367.198,300.81 367.761,300.81 C 368.998,301.035 370.123,301.485 370.123,303.06 C 370.123,304.972 368.21,305.873 366.41,305.873 C 365.285,305.873 364.048,305.423 362.923,304.973 L 363.935,302.722 L 363.935,302.722 z"
         id="path2392"
         style="fill-rule:evenodd" />
      <path
         d="M 371.359,294.06 L 374.959,294.06 L 374.959,297.322 L 374.847,299.347 L 374.847,299.347 C 375.522,298.56 376.309,297.885 377.322,297.885 C 379.235,297.885 379.909,299.347 379.909,301.035 L 379.909,305.648 L 376.309,305.648 L 376.309,301.71 C 376.309,301.373 376.196,300.81 375.746,300.81 C 375.183,300.81 374.958,301.26 374.958,301.71 L 374.958,305.648 L 371.358,305.648 L 371.358,294.06 L 371.359,294.06 z"
         id="path2394"
         style="fill-rule:evenodd" />
      <path
         d="M 384.859,302.497 C 384.859,303.06 384.971,303.847 385.759,303.847 C 386.096,303.847 386.434,303.51 386.434,303.172 L 390.034,303.172 C 389.584,304.972 387.559,305.872 385.759,305.872 C 383.397,305.872 381.259,304.634 381.259,302.047 C 381.259,299.46 383.172,297.884 385.534,297.884 C 388.234,297.884 390.371,299.684 390.259,302.496 L 384.859,302.496 L 384.859,302.497 z M 386.547,300.922 C 386.547,300.359 386.21,299.909 385.647,299.909 C 385.085,299.909 384.86,300.359 384.86,300.922 L 386.547,300.922 L 386.547,300.922 z"
         id="path2396"
         style="fill-rule:evenodd" />
      <path
         d="M 397.797,301.709 C 397.459,301.484 397.122,301.259 396.672,301.259 C 395.659,301.259 395.21,301.822 395.21,302.721 L 395.21,305.646 L 391.497,305.646 L 391.497,298.108 L 395.21,298.108 L 395.097,299.12 L 395.21,299.12 C 395.885,298.108 396.56,297.883 397.797,297.883 L 397.797,301.709 L 397.797,301.709 z"
         id="path2398"
         style="fill-rule:evenodd" />
      <path
         d="M 403.646,301.822 L 403.872,301.934 C 404.547,302.497 405.446,302.947 406.347,302.947 C 406.685,302.947 407.36,302.835 407.36,302.272 C 407.36,301.822 406.797,301.822 406.46,301.709 L 405.673,301.597 C 404.098,301.26 402.86,300.36 402.86,298.672 C 402.86,296.197 405.11,294.734 407.472,294.734 C 408.709,294.734 409.834,295.071 410.959,295.634 L 409.834,298.447 C 409.159,297.997 408.484,297.659 407.584,297.659 C 407.247,297.659 406.797,297.772 406.797,298.222 C 406.797,298.56 407.247,298.672 407.584,298.672 L 408.372,298.897 C 410.06,299.235 411.297,300.135 411.297,302.047 C 411.297,304.522 408.935,305.872 406.572,305.872 C 405.221,305.872 403.646,305.422 402.409,304.859 L 403.646,301.822 L 403.646,301.822 z"
         id="path2400"
         style="fill-rule:evenodd" />
      <path
         d="M 418.385,301.372 C 418.047,301.034 417.597,300.697 417.034,300.697 C 416.359,300.697 415.909,301.147 415.909,301.822 C 415.909,302.497 416.359,302.947 416.922,302.947 C 417.597,302.947 417.935,302.722 418.385,302.384 L 418.272,305.534 C 417.709,305.647 417.035,305.872 416.36,305.872 C 413.885,305.872 412.198,304.409 412.198,301.934 C 412.198,299.684 413.772,297.884 416.135,297.884 C 416.81,297.884 417.71,298.109 418.386,298.334 L 418.386,301.372 L 418.385,301.372 z"
         id="path2402"
         style="fill-rule:evenodd" />
      <path
         d="M 420.185,298.109 L 423.897,298.109 L 423.897,305.647 L 420.185,305.647 L 420.185,298.109 L 420.185,298.109 z M 424.009,295.747 C 424.009,296.985 423.11,297.547 421.985,297.547 C 420.972,297.547 419.96,296.984 419.96,295.747 C 419.96,294.622 420.86,293.947 421.985,293.947 C 423.222,293.947 424.009,294.622 424.009,295.747 L 424.009,295.747 z"
         id="path2404"
         style="fill-rule:evenodd" />
      <path
         d="M 428.847,302.497 C 428.847,303.06 428.959,303.847 429.634,303.847 C 430.084,303.847 430.309,303.51 430.422,303.172 L 434.022,303.172 C 433.572,304.972 431.435,305.872 429.748,305.872 C 427.385,305.872 425.135,304.634 425.135,302.047 C 425.135,299.46 427.16,297.884 429.523,297.884 C 432.223,297.884 434.361,299.684 434.135,302.496 L 428.847,302.496 L 428.847,302.497 z M 430.534,300.922 C 430.534,300.359 430.196,299.909 429.634,299.909 C 429.072,299.909 428.847,300.359 428.847,300.922 L 430.534,300.922 L 430.534,300.922 z"
         id="path2406"
         style="fill-rule:evenodd" />
      <path
         d="M 438.972,299.347 L 439.084,299.347 C 439.759,298.447 440.321,297.885 441.446,297.885 C 443.359,297.885 444.146,299.347 444.146,301.035 L 444.146,305.648 L 440.434,305.648 L 440.434,301.935 C 440.434,301.485 440.434,300.923 439.758,300.923 C 439.195,300.923 439.195,301.486 439.195,301.935 L 439.195,305.648 L 435.483,305.648 L 435.483,298.11 L 439.083,298.11 L 438.972,299.347 L 438.972,299.347 z"
         id="path2408"
         style="fill-rule:evenodd" />
      <polygon
         points="449.547,298.222 450.784,298.109 450.784,301.034 449.547,300.922 449.547,305.647 445.834,305.647 445.834,300.922 445.047,301.034 445.047,298.109 445.834,298.222 445.834,295.634 449.547,295.634 449.547,298.222 "
         id="polygon2410"
         style="fill-rule:evenodd" />
      <path
         d="M 452.021,298.109 L 455.622,298.109 L 455.622,305.647 L 452.021,305.647 L 452.021,298.109 L 452.021,298.109 z M 455.847,295.747 C 455.847,296.985 454.834,297.547 453.822,297.547 C 452.81,297.547 451.798,296.984 451.798,295.747 C 451.798,294.622 452.697,293.947 453.822,293.947 C 454.947,293.947 455.847,294.622 455.847,295.747 L 455.847,295.747 z"
         id="path2412"
         style="fill-rule:evenodd" />
      <path
         d="M 457.534,297.434 C 457.534,295.184 458.547,293.947 460.797,293.947 C 461.36,293.947 461.921,294.06 462.485,294.172 L 462.485,297.097 C 462.259,296.984 462.147,296.984 461.922,296.984 C 461.36,296.984 461.135,297.434 461.135,297.996 L 461.135,298.221 L 462.372,298.109 L 462.372,301.034 L 461.247,300.922 L 461.247,305.647 L 457.535,305.647 L 457.535,300.922 L 456.522,301.034 L 456.522,298.109 L 457.535,298.221 L 457.535,297.434 L 457.534,297.434 z"
         id="path2414"
         style="fill-rule:evenodd" />
      <path
         d="M 463.722,298.109 L 467.434,298.109 L 467.434,305.647 L 463.722,305.647 L 463.722,298.109 L 463.722,298.109 z M 467.547,295.747 C 467.547,296.985 466.647,297.547 465.522,297.547 C 464.509,297.547 463.497,296.984 463.497,295.747 C 463.497,294.622 464.397,293.947 465.522,293.947 C 466.759,293.947 467.547,294.622 467.547,295.747 L 467.547,295.747 z"
         id="path2416"
         style="fill-rule:evenodd" />
      <path
         d="M 475.196,301.372 C 474.746,301.034 474.296,300.697 473.734,300.697 C 473.171,300.697 472.608,301.147 472.608,301.822 C 472.608,302.497 473.171,302.947 473.734,302.947 C 474.296,302.947 474.746,302.722 475.196,302.384 L 474.971,305.534 C 474.408,305.647 473.734,305.872 473.171,305.872 C 470.695,305.872 468.896,304.409 468.896,301.934 C 468.896,299.684 470.584,297.884 472.834,297.884 C 473.621,297.884 474.409,298.109 475.196,298.334 L 475.196,301.372 L 475.196,301.372 z"
         id="path2418"
         style="fill-rule:evenodd" />
      <polygon
         points="349.31,309.471 353.247,309.471 353.247,320.271 349.31,320.271 349.31,309.471 "
         id="polygon2420"
         style="fill-rule:evenodd" />
      <path
         d="M 358.422,313.859 L 358.534,313.859 C 359.209,313.072 359.772,312.509 361.009,312.509 C 362.809,312.509 363.596,313.859 363.596,315.546 L 363.596,320.271 L 359.884,320.271 L 359.884,316.558 C 359.884,316.109 359.884,315.433 359.321,315.433 C 358.646,315.433 358.646,316.109 358.646,316.558 L 358.646,320.271 L 354.934,320.271 L 354.934,312.621 L 358.534,312.621 L 358.422,313.859 L 358.422,313.859 z"
         id="path2422"
         style="fill-rule:evenodd" />
      <polygon
         points="369.334,312.734 370.572,312.734 370.572,315.658 369.334,315.547 369.334,320.271 365.622,320.271 365.622,315.547 364.722,315.658 364.722,312.734 365.622,312.734 365.622,310.26 369.334,310.26 369.334,312.734 "
         id="polygon2424"
         style="fill-rule:evenodd" />
      <path
         d="M 374.847,317.121 C 374.847,317.684 374.959,318.359 375.747,318.359 C 376.197,318.359 376.422,318.134 376.534,317.796 L 380.134,317.796 C 379.571,319.595 377.547,320.384 375.859,320.384 C 373.496,320.384 371.247,319.146 371.247,316.558 C 371.247,314.083 373.16,312.509 375.634,312.509 C 378.334,312.509 380.471,314.197 380.247,317.12 L 374.847,317.12 L 374.847,317.121 z M 376.647,315.547 C 376.647,314.984 376.31,314.535 375.747,314.535 C 375.184,314.535 374.847,314.984 374.847,315.547 L 376.647,315.547 L 376.647,315.547 z"
         id="path2426"
         style="fill-rule:evenodd" />
      <path
         d="M 387.784,316.223 C 387.447,315.996 387.221,315.772 386.659,315.772 C 385.759,315.772 385.309,316.335 385.309,317.348 L 385.309,320.272 L 381.596,320.272 L 381.596,312.622 L 385.309,312.622 L 385.196,313.636 L 385.309,313.636 C 385.871,312.622 386.546,312.511 387.784,312.511 L 387.784,316.223 L 387.784,316.223 z"
         id="path2428"
         style="fill-rule:evenodd" />
      <path
         d="M 392.622,313.859 L 392.734,313.859 C 393.522,313.072 393.971,312.509 395.209,312.509 C 397.122,312.509 397.796,313.859 397.796,315.546 L 397.796,320.271 L 394.084,320.271 L 394.084,316.558 C 394.084,316.109 394.084,315.433 393.521,315.433 C 392.846,315.433 392.846,316.109 392.846,316.558 L 392.846,320.271 L 389.246,320.271 L 389.246,312.621 L 392.846,312.621 L 392.622,313.859 L 392.622,313.859 z"
         id="path2430"
         style="fill-rule:evenodd" />
      <path
         d="M 404.771,319.26 L 404.659,319.26 C 403.984,319.934 403.422,320.385 402.297,320.385 C 400.272,320.385 399.147,318.36 399.147,316.447 C 399.147,314.534 400.272,312.509 402.41,312.509 C 403.31,312.509 404.098,312.847 404.66,313.521 L 404.772,313.521 L 404.66,312.621 L 408.26,312.621 L 408.26,320.271 L 404.66,320.271 L 404.771,319.26 L 404.771,319.26 z M 403.759,317.572 C 404.435,317.572 404.772,317.009 404.772,316.334 C 404.772,315.771 404.322,315.322 403.759,315.322 C 403.197,315.322 402.747,315.885 402.747,316.447 C 402.747,317.009 403.084,317.572 403.759,317.572 L 403.759,317.572 z"
         id="path2432"
         style="fill-rule:evenodd" />
      <polygon
         points="413.771,312.734 415.009,312.734 415.009,315.658 413.771,315.547 413.771,320.271 410.06,320.271 410.06,315.547 409.159,315.658 409.159,312.734 410.06,312.734 410.06,310.26 413.771,310.26 413.771,312.734 "
         id="polygon2434"
         style="fill-rule:evenodd" />
      <path
         d="M 415.797,312.621 L 419.509,312.621 L 419.509,320.271 L 415.797,320.271 L 415.797,312.621 L 415.797,312.621 z M 419.734,310.371 C 419.734,311.609 418.721,312.059 417.709,312.059 C 416.584,312.059 415.685,311.61 415.685,310.371 C 415.685,309.246 416.472,308.572 417.709,308.572 C 418.834,308.572 419.734,309.246 419.734,310.371 L 419.734,310.371 z"
         id="path2436"
         style="fill-rule:evenodd" />
      <path
         d="M 429.747,316.559 C 429.747,319.036 427.496,320.385 425.134,320.385 C 422.772,320.385 420.522,319.035 420.522,316.559 C 420.522,313.86 422.66,312.51 425.134,312.51 C 427.609,312.51 429.747,313.859 429.747,316.559 L 429.747,316.559 z M 424.122,316.447 C 424.122,317.121 424.572,317.572 425.134,317.572 C 425.697,317.572 426.147,317.121 426.147,316.447 C 426.147,315.884 425.697,315.322 425.134,315.322 C 424.459,315.322 424.122,315.885 424.122,316.447 L 424.122,316.447 z"
         id="path2438"
         style="fill-rule:evenodd" />
      <path
         d="M 434.584,313.859 L 434.584,313.859 C 435.371,313.072 435.935,312.509 437.059,312.509 C 438.972,312.509 439.647,313.859 439.647,315.546 L 439.647,320.271 L 436.047,320.271 L 436.047,316.558 C 436.047,316.109 436.047,315.433 435.371,315.433 C 434.808,315.433 434.808,316.109 434.808,316.558 L 434.808,320.271 L 431.096,320.271 L 431.096,312.621 L 434.696,312.621 L 434.584,313.859 L 434.584,313.859 z"
         id="path2440"
         style="fill-rule:evenodd" />
      <path
         d="M 446.622,319.26 L 446.509,319.26 C 445.834,319.934 445.272,320.385 444.259,320.385 C 442.122,320.385 440.996,318.36 440.996,316.447 C 440.996,314.534 442.122,312.509 444.259,312.509 C 445.272,312.509 445.947,312.847 446.509,313.521 L 446.622,313.521 L 446.509,312.621 L 450.11,312.621 L 450.11,320.271 L 446.509,320.271 L 446.622,319.26 L 446.622,319.26 z M 445.609,317.572 C 446.284,317.572 446.622,317.009 446.622,316.334 C 446.622,315.771 446.172,315.322 445.609,315.322 C 445.046,315.322 444.709,315.885 444.709,316.447 C 444.709,317.009 444.935,317.572 445.609,317.572 L 445.609,317.572 z"
         id="path2442"
         style="fill-rule:evenodd" />
      <polygon
         points="451.797,308.684 455.509,308.684 455.509,320.271 451.797,320.271 451.797,308.684 "
         id="polygon2444"
         style="fill-rule:evenodd" />
      <polygon
         points="461.134,309.471 465.071,309.471 465.071,320.271 461.134,320.271 461.134,309.471 "
         id="polygon2446"
         style="fill-rule:evenodd" />
      <path
         d="M 470.359,313.859 L 470.359,313.859 C 471.146,313.072 471.596,312.509 472.834,312.509 C 474.746,312.509 475.421,313.859 475.421,315.546 L 475.421,320.271 L 471.821,320.271 L 471.821,316.558 C 471.821,316.109 471.821,315.433 471.146,315.433 C 470.583,315.433 470.583,316.109 470.583,316.558 L 470.583,320.271 L 466.87,320.271 L 466.87,312.621 L 470.471,312.621 L 470.359,313.859 L 470.359,313.859 z"
         id="path2448"
         style="fill-rule:evenodd" />
      <path
         d="M 482.959,315.996 C 482.621,315.658 482.172,315.322 481.608,315.322 C 480.933,315.322 480.484,315.771 480.484,316.447 C 480.484,317.01 480.933,317.572 481.496,317.572 C 482.059,317.572 482.509,317.234 482.959,316.896 L 482.847,320.046 C 482.284,320.271 481.609,320.384 480.934,320.384 C 478.459,320.384 476.772,319.034 476.772,316.446 C 476.772,314.196 478.347,312.508 480.71,312.508 C 481.385,312.508 482.285,312.619 482.96,312.846 L 482.96,315.996 L 482.959,315.996 z"
         id="path2450"
         style="fill-rule:evenodd" />
      <path
         d="M 488.921,318.697 C 488.921,319.822 487.796,320.385 486.784,320.385 C 485.771,320.385 484.646,319.822 484.646,318.697 C 484.646,317.459 485.771,316.783 486.784,316.783 C 487.796,316.783 488.921,317.459 488.921,318.697 L 488.921,318.697 z"
         id="path2452"
         style="fill-rule:evenodd" />
    </g>
  </g>
</svg>
