<svg xmlns="http://www.w3.org/2000/svg" viewBox="0 0 1320 760" fill="none">
  <title>Nord-est Italia e Slovenia</title>
  <desc>Confini regionali del nord-est italiano e confine di stato con la Slovenia ricavati da GISCO Eurostat NUTS 2024.</desc>
  <style>
    .map-regions { opacity: 0.98; }
    .map-region {
      stroke: #b4becf;
      stroke-width: 1.52;
      stroke-opacity: 0.78;
      stroke-linecap: round;
      stroke-linejoin: round;
      vector-effect: non-scaling-stroke;
    }
    .map-states { opacity: 0.98; }
    .map-state {
      stroke: #f6f8ff;
      stroke-width: 5.1;
      stroke-opacity: 0.99;
      stroke-linecap: round;
      stroke-linejoin: round;
      vector-effect: non-scaling-stroke;
    }
    .map-state--si { stroke-width: 1.52; }
    .map-state--at { display: none; }
    .map-labels {
      fill: #eef4ff;
      opacity: 0.94;
      font-family: "Montserrat", "Segoe UI", sans-serif;
      pointer-events: none;
    }
    .map-label {
      font-size: 28px;
      font-weight: 500;
      letter-spacing: 0.02em;
      text-anchor: middle;
      paint-order: stroke;
      stroke: rgba(5, 8, 18, 0.82);
      stroke-width: 10px;
      stroke-linejoin: round;
    }
    .map-label--small { font-size: 24px; }
  </style>
  <g class="map-regions">
    <path class="map-region map-region--itc4" d="M 327.56 218.68 L 329.21 220.83 L 326.92 224.64 L 327.58 228.03 L 328.62 228.63 L 330.58 227.57 L 333.11 228.99 L 334.83 233.14 L 336.87 233.65 L 338.75 232.85 L 340.81 234.42 L 342.59 232.03 L 343.89 231.96 L 348.85 234.19 L 351.85 232.93 L 356.75 236.98 L 357.51 240.93 L 360.05 244.10 L 361.11 244.39 L 362.52 243.64 L 370.18 244.82 L 374.29 248.53 L 377.61 249.55 L 380.67 253.72 L 379.99 254.79 L 380.18 260.36 L 381.72 262.02 L 381.68 263.10 L 378.82 266.34 L 378.56 267.52 L 372.70 268.14 L 369.59 270.46 L 369.12 272.55 L 366.34 272.48 L 365.64 274.97 L 366.98 275.14 L 372.48 278.35 L 372.65 281.05 L 374.66 283.97 L 372.01 287.05 L 374.07 288.86 L 375.43 294.36 L 374.73 295.98 L 373.16 297.19 L 373.36 299.31 L 370.61 302.71 L 369.27 306.30 L 372.49 310.54 L 371.10 314.38 L 370.05 315.38 L 370.57 319.56 L 369.18 323.69 L 360.47 333.67 L 361.16 334.96 L 361.41 338.70 L 360.96 340.03 L 359.49 340.18 L 357.49 342.67 L 356.79 346.93 L 356.85 349.29 L 360.34 350.54 L 361.72 350.41 L 361.93 352.03 L 361.11 354.52 L 361.48 355.93 L 362.21 356.30 L 362.19 358.06 L 364.56 360.16 L 364.30 364.10 L 362.51 365.05 L 362.82 366.26 L 362.10 367.60 L 363.87 369.92 L 364.39 376.76 L 363.86 378.96 L 364.70 380.13 L 367.46 379.73 L 369.55 381.88 L 367.10 383.92 L 368.22 384.52 L 367.81 385.74 L 368.47 386.63 L 368.27 387.58 L 369.84 388.18 L 373.98 387.69 L 375.44 385.94 L 379.50 383.94 L 382.51 383.72 L 383.39 384.69 L 385.49 380.54 L 385.30 378.52 L 388.31 378.81 L 391.41 376.75 L 393.60 377.63 L 396.40 376.44 L 398.68 377.53 L 399.63 378.98 L 400.43 377.18 L 401.82 376.42 L 404.51 378.19 L 409.28 377.53 L 411.46 378.43 L 410.41 381.80 L 406.94 385.76 L 392.46 410.11 L 381.49 424.22 L 384.13 456.28 L 383.32 457.11 L 380.89 457.31 L 381.40 458.38 L 383.17 457.40 L 384.36 457.95 L 383.94 459.32 L 384.70 460.52 L 383.87 462.42 L 385.26 462.93 L 386.65 460.62 L 393.72 462.57 L 394.17 466.73 L 392.66 469.63 L 391.44 470.25 L 391.75 471.24 L 393.61 472.73 L 392.09 474.58 L 389.63 475.49 L 389.94 477.81 L 392.17 478.27 L 393.71 479.66 L 392.58 483.10 L 394.88 482.67 L 395.92 483.26 L 396.26 485.36 L 395.65 488.15 L 396.96 488.85 L 403.37 483.28 L 409.89 489.61 L 412.50 494.99 L 416.47 496.05 L 417.24 497.03 L 419.47 497.13 L 420.46 499.09 L 425.11 500.00 L 424.26 502.25 L 426.55 505.50 L 429.38 505.56 L 432.67 507.56 L 433.60 509.48 L 432.98 510.27 L 433.78 513.52 L 433.01 516.19 L 435.64 516.88 L 437.90 515.08 L 439.06 516.78 L 440.52 516.28 L 441.01 516.88 L 440.02 518.23 L 440.07 520.07 L 438.30 521.25 L 438.15 522.12 L 439.32 523.87 L 444.34 527.19 L 447.82 527.90 L 447.40 526.60 L 448.17 524.59 L 450.41 525.99 L 452.23 526.14 L 453.81 522.19 L 454.89 521.71 L 456.81 523.25 L 460.70 524.86 L 462.77 524.57 L 463.06 525.01 L 459.30 527.60 L 459.23 529.10 L 460.35 530.22 L 458.78 532.21 L 458.92 534.90 L 463.26 535.36 L 467.70 538.35 L 468.77 538.22 L 471.35 535.81 L 472.22 538.28 L 471.41 540.77 L 472.99 543.63 L 477.64 544.70 L 481.13 548.94 L 492.62 553.82 L 494.20 555.48 L 494.31 557.32 L 490.85 557.61 L 490.19 556.36 L 487.24 555.70 L 484.46 557.21 L 480.24 554.99 L 478.39 555.55 L 476.75 554.85 L 476.75 555.74 L 474.23 556.14 L 472.52 559.45 L 468.81 557.04 L 467.67 558.30 L 464.14 558.65 L 462.01 559.74 L 456.80 559.53 L 455.35 560.59 L 450.93 556.61 L 444.39 554.89 L 442.45 557.56 L 433.53 556.43 L 429.24 560.41 L 427.06 560.71 L 427.17 561.82 L 425.50 562.96 L 422.16 562.64 L 418.85 564.73 L 418.20 564.58 L 418.39 563.61 L 416.61 564.01 L 414.93 561.60 L 412.60 562.15 L 410.96 560.32 L 409.81 560.84 L 407.61 559.90 L 406.63 560.30 L 405.83 559.04 L 404.78 559.40 L 397.96 557.47 L 398.47 554.77 L 397.00 550.10 L 395.99 549.78 L 395.70 548.90 L 393.60 549.99 L 393.02 552.78 L 391.85 554.33 L 390.53 554.74 L 390.13 554.11 L 390.98 552.29 L 389.79 549.92 L 388.73 551.91 L 386.31 554.00 L 381.48 562.56 L 380.73 562.39 L 372.90 565.71 L 365.72 564.62 L 363.58 562.64 L 354.36 558.67 L 351.01 551.01 L 348.35 550.55 L 343.49 554.20 L 339.62 551.19 L 336.61 549.78 L 335.60 547.38 L 331.70 547.55 L 330.25 546.23 L 328.97 543.66 L 322.62 540.30 L 320.17 541.46 L 318.36 541.03 L 316.38 538.39 L 315.23 538.29 L 313.43 540.14 L 311.26 541.15 L 307.79 542.64 L 306.12 542.39 L 304.81 540.63 L 304.18 537.70 L 300.11 538.77 L 300.11 536.67 L 298.56 534.28 L 296.44 532.96 L 295.91 531.49 L 296.96 528.35 L 296.34 526.97 L 291.39 520.66 L 289.44 520.12 L 283.59 526.13 L 281.16 526.86 L 280.71 525.37 L 281.83 523.74 L 282.43 520.82 L 280.93 519.15 L 277.43 520.67 L 275.64 521.91 L 275.30 523.35 L 278.44 527.38 L 278.78 529.15 L 278.13 530.91 L 276.47 532.02 L 275.34 531.54 L 273.47 528.49 L 271.29 527.64 L 270.04 527.87 L 269.27 528.71 L 269.02 530.57 L 269.32 534.46 L 267.92 536.54 L 266.91 535.79 L 266.44 531.47 L 263.38 530.43 L 261.59 529.05 L 259.85 525.46 L 258.57 524.39 L 257.10 524.48 L 256.80 525.75 L 257.93 529.41 L 257.14 531.77 L 255.74 532.49 L 253.70 535.04 L 252.31 535.26 L 249.09 533.54 L 247.18 531.47 L 241.50 530.31 L 240.81 529.01 L 242.02 523.30 L 241.48 521.58 L 239.87 520.21 L 239.01 520.30 L 237.74 524.97 L 234.72 526.86 L 234.14 525.97 L 232.89 526.46 L 232.15 525.84 L 229.07 520.32 L 227.24 522.48 L 229.35 528.60 L 226.72 531.31 L 225.67 530.69 L 222.91 526.51 L 221.43 526.27 L 217.46 527.95 L 213.58 528.26 L 213.03 530.50 L 210.01 530.32 L 209.94 531.98 L 208.45 532.47 L 203.95 537.44 L 204.61 538.62 L 203.76 542.39 L 204.63 543.16 L 202.84 546.97 L 200.64 547.80 L 198.99 552.24 L 199.25 554.22 L 197.42 556.11 L 196.76 558.92 L 195.33 560.29 L 192.06 560.83 L 193.00 562.78 L 192.72 565.19 L 190.76 568.36 L 192.69 569.28 L 192.67 570.81 L 193.29 571.43 L 195.29 572.27 L 197.02 571.71 L 197.69 572.97 L 199.77 573.59 L 200.81 579.65 L 202.86 583.20 L 202.03 584.86 L 200.14 586.42 L 196.99 587.73 L 196.14 591.06 L 192.11 593.31 L 191.96 595.96 L 197.04 599.19 L 198.55 600.90 L 197.66 603.05 L 195.88 604.49 L 195.25 606.96 L 196.42 608.87 L 197.46 609.30 L 197.43 610.03 L 194.56 610.44 L 193.74 611.85 L 191.78 612.02 L 191.46 610.92 L 188.06 611.72 L 187.34 608.80 L 184.79 604.69 L 184.44 607.55 L 185.71 610.73 L 182.85 611.35 L 179.83 610.82 L 180.94 607.43 L 180.32 603.51 L 181.30 601.45 L 181.74 597.39 L 178.71 596.24 L 176.40 593.81 L 175.79 592.62 L 176.07 588.67 L 173.64 585.90 L 174.07 584.98 L 173.62 584.62 L 172.43 585.80 L 169.96 586.53 L 168.65 585.90 L 167.13 586.47 L 165.02 583.88 L 162.88 584.76 L 161.78 584.19 L 161.86 582.13 L 160.64 581.59 L 158.52 577.54 L 161.11 575.39 L 161.48 574.35 L 160.48 573.31 L 159.34 569.86 L 157.73 570.45 L 155.87 569.80 L 154.18 567.31 L 152.19 566.11 L 150.10 561.36 L 147.27 558.66 L 147.68 556.71 L 148.78 556.60 L 148.49 553.85 L 146.02 549.78 L 144.44 549.61 L 143.37 550.77 L 141.07 550.84 L 138.65 547.51 L 137.64 544.87 L 137.83 539.95 L 136.75 539.00 L 137.48 538.36 L 137.12 537.10 L 134.92 536.26 L 135.72 535.21 L 134.87 535.03 L 132.76 536.73 L 132.60 537.82 L 131.88 536.82 L 129.57 537.19 L 129.10 538.20 L 127.42 538.72 L 126.50 538.01 L 126.32 539.58 L 124.81 539.80 L 124.61 540.42 L 122.98 540.19 L 123.66 541.92 L 123.10 542.92 L 120.17 542.65 L 119.52 545.64 L 118.28 544.67 L 116.15 545.14 L 116.57 543.91 L 116.09 542.93 L 112.74 542.45 L 110.45 539.47 L 108.27 542.92 L 106.94 541.58 L 105.78 541.40 L 104.71 541.60 L 104.32 542.95 L 103.34 543.37 L 102.60 542.57 L 103.03 541.47 L 102.35 540.20 L 100.35 539.36 L 100.62 537.22 L 101.60 536.17 L 100.46 533.61 L 101.58 531.93 L 100.69 531.42 L 99.99 529.28 L 98.20 528.71 L 98.24 527.53 L 96.45 525.46 L 96.93 521.61 L 93.69 520.24 L 93.01 517.22 L 92.23 516.37 L 88.72 515.16 L 88.78 513.41 L 87.71 513.14 L 87.10 511.90 L 87.38 510.26 L 88.63 508.57 L 89.70 508.17 L 90.24 507.01 L 92.43 506.22 L 91.81 505.22 L 89.05 505.72 L 88.09 507.44 L 85.79 507.95 L 84.43 507.00 L 87.43 505.64 L 84.44 502.11 L 84.84 500.99 L 86.79 499.90 L 86.44 499.12 L 87.15 498.29 L 84.87 497.38 L 84.30 495.73 L 86.10 496.82 L 86.94 495.92 L 85.83 494.84 L 85.79 490.97 L 84.37 490.71 L 84.00 491.59 L 82.81 491.41 L 83.44 488.48 L 80.73 487.98 L 82.87 483.69 L 84.09 483.84 L 85.44 482.62 L 86.32 482.90 L 84.69 477.85 L 87.98 475.78 L 88.47 473.94 L 89.15 475.56 L 91.81 476.70 L 93.61 475.92 L 94.79 476.49 L 98.04 475.01 L 99.79 476.56 L 99.56 478.62 L 102.96 481.20 L 103.86 484.22 L 103.40 485.66 L 104.42 488.00 L 107.89 487.91 L 111.21 486.07 L 112.47 482.29 L 112.71 479.16 L 115.16 479.90 L 115.47 478.44 L 117.85 476.74 L 117.78 475.11 L 115.45 475.04 L 112.21 471.97 L 111.90 470.58 L 113.56 471.09 L 117.98 470.77 L 118.60 468.55 L 122.18 470.30 L 123.52 470.31 L 124.82 469.58 L 125.14 468.32 L 129.39 467.38 L 126.80 462.18 L 126.38 460.44 L 126.90 459.36 L 124.74 459.54 L 124.74 457.01 L 121.64 453.13 L 122.07 452.04 L 121.57 448.66 L 119.45 448.82 L 117.27 446.26 L 114.99 446.21 L 113.09 445.27 L 111.07 441.83 L 111.95 439.57 L 110.76 437.49 L 109.93 432.09 L 108.34 430.32 L 109.87 427.17 L 109.45 425.29 L 107.86 424.34 L 108.34 423.64 L 106.59 421.48 L 103.97 421.02 L 104.30 419.59 L 103.57 417.62 L 104.30 416.95 L 106.06 418.62 L 107.12 418.63 L 107.39 416.92 L 105.10 412.80 L 106.58 411.50 L 106.36 410.12 L 101.37 410.30 L 100.90 409.84 L 100.80 408.43 L 102.74 402.89 L 101.21 400.77 L 95.56 399.99 L 94.21 399.17 L 92.61 395.37 L 88.83 390.14 L 88.35 387.48 L 88.81 385.06 L 89.93 383.60 L 92.27 382.46 L 94.41 378.25 L 94.00 374.44 L 90.87 366.57 L 91.08 364.53 L 96.32 358.22 L 112.94 340.89 L 113.31 339.09 L 110.05 327.71 L 112.65 322.17 L 115.19 319.76 L 117.09 323.27 L 121.05 325.41 L 123.15 325.30 L 124.51 324.22 L 130.69 329.20 L 130.91 332.23 L 129.60 334.51 L 128.03 334.45 L 128.34 335.66 L 127.57 336.10 L 127.17 337.99 L 126.11 339.37 L 124.27 340.12 L 122.36 342.89 L 121.34 346.75 L 122.74 346.23 L 127.81 347.12 L 133.04 352.44 L 135.00 353.24 L 136.40 352.94 L 136.95 353.64 L 137.22 355.54 L 136.48 357.89 L 138.46 361.20 L 139.47 361.20 L 140.96 364.05 L 140.55 365.77 L 141.93 367.86 L 142.22 370.81 L 143.64 371.23 L 139.46 376.51 L 139.17 378.90 L 140.35 378.14 L 141.55 378.30 L 142.29 377.11 L 144.35 376.26 L 145.33 376.37 L 147.34 378.51 L 149.57 377.42 L 151.22 377.98 L 150.84 380.46 L 152.52 381.05 L 153.84 381.34 L 156.44 380.40 L 156.58 377.03 L 158.75 374.48 L 158.59 372.42 L 159.60 370.11 L 160.95 369.65 L 162.57 367.83 L 162.72 366.57 L 164.14 364.68 L 162.44 364.94 L 162.35 362.65 L 157.61 359.36 L 154.31 359.05 L 154.69 357.08 L 153.30 355.93 L 153.87 354.86 L 153.46 352.61 L 150.72 351.24 L 150.32 350.28 L 151.07 348.61 L 152.65 348.42 L 153.32 347.09 L 155.60 345.83 L 154.76 341.12 L 152.72 338.51 L 154.15 334.40 L 158.68 331.98 L 160.32 332.16 L 162.64 331.30 L 162.76 329.42 L 164.21 327.17 L 161.82 320.60 L 168.73 317.21 L 170.60 313.58 L 173.58 311.65 L 174.09 310.16 L 177.50 309.95 L 179.55 306.63 L 179.16 305.45 L 180.13 302.32 L 182.30 301.28 L 182.77 298.14 L 186.68 297.16 L 187.18 290.34 L 188.37 288.03 L 191.70 284.34 L 191.46 281.81 L 193.97 278.37 L 192.93 276.62 L 193.80 274.87 L 193.49 272.77 L 191.54 271.91 L 190.57 269.99 L 191.62 266.24 L 190.62 264.83 L 191.34 261.96 L 190.35 259.65 L 189.06 259.43 L 186.89 257.12 L 186.54 254.29 L 189.47 252.74 L 190.54 251.43 L 190.47 246.50 L 191.51 243.87 L 195.80 242.34 L 201.68 242.22 L 202.75 241.27 L 204.32 242.48 L 203.97 245.14 L 206.07 247.01 L 206.78 248.64 L 209.59 249.93 L 211.41 247.93 L 211.74 245.39 L 212.89 243.72 L 217.16 241.62 L 216.69 246.27 L 215.07 246.86 L 216.86 247.16 L 217.23 249.40 L 216.41 251.23 L 216.60 254.58 L 215.80 258.88 L 217.46 263.87 L 217.64 265.76 L 216.86 267.90 L 217.09 268.63 L 221.54 270.74 L 223.27 273.37 L 225.09 278.65 L 229.19 283.26 L 230.48 282.54 L 233.92 284.89 L 237.67 284.90 L 239.01 286.18 L 241.74 286.50 L 247.09 283.26 L 248.83 284.91 L 250.85 285.53 L 252.44 285.21 L 254.05 281.02 L 253.99 279.83 L 252.98 278.89 L 254.13 277.03 L 253.84 275.52 L 256.39 273.32 L 260.33 276.41 L 261.48 276.46 L 262.39 275.44 L 267.57 273.21 L 269.09 271.37 L 274.36 270.83 L 279.79 267.42 L 282.36 270.21 L 283.36 268.73 L 286.19 267.69 L 287.03 267.90 L 286.74 268.99 L 287.83 270.76 L 290.81 273.13 L 292.20 273.45 L 292.14 275.10 L 290.16 278.92 L 292.72 281.21 L 292.79 283.19 L 291.75 284.79 L 292.20 286.55 L 296.94 288.36 L 300.29 290.49 L 301.38 294.22 L 299.14 297.77 L 302.78 300.53 L 304.72 298.64 L 311.96 298.68 L 313.33 297.79 L 314.21 295.93 L 317.74 292.19 L 314.54 285.27 L 312.23 283.51 L 312.34 282.80 L 309.33 280.80 L 307.61 276.80 L 308.23 273.26 L 310.97 271.26 L 310.91 267.90 L 312.95 266.26 L 315.25 266.35 L 315.90 265.23 L 316.12 261.50 L 315.35 260.35 L 313.94 260.64 L 312.99 257.90 L 311.30 257.08 L 309.26 258.07 L 308.09 257.87 L 306.84 259.04 L 304.46 259.16 L 303.53 257.86 L 301.49 257.84 L 300.79 255.40 L 298.78 254.88 L 298.87 252.71 L 300.31 250.63 L 298.98 246.95 L 299.57 243.28 L 298.85 241.48 L 300.04 240.43 L 300.39 239.00 L 300.14 236.70 L 299.13 235.39 L 299.41 234.27 L 301.49 233.79 L 304.67 229.74 L 304.07 228.06 L 306.38 227.23 L 307.09 225.85 L 306.59 224.01 L 307.23 220.76 L 311.04 221.75 L 319.70 217.79 L 323.20 219.34 L 324.46 217.11 L 326.37 215.95 L 327.38 218.45 L 327.56 218.68 Z" />
    <path class="map-region map-region--ith3" d="M 642.76 206.75 L 644.15 207.36 L 646.17 206.78 L 648.31 207.12 L 652.53 210.92 L 655.77 212.51 L 656.88 211.53 L 660.42 211.51 L 662.79 210.45 L 664.38 210.49 L 664.84 211.72 L 666.05 212.32 L 668.83 211.31 L 672.80 211.39 L 674.17 212.51 L 676.32 213.03 L 678.56 215.98 L 674.98 218.95 L 675.18 222.44 L 672.27 223.12 L 667.86 228.73 L 666.15 227.94 L 665.15 228.68 L 662.83 234.50 L 664.45 243.22 L 667.36 246.22 L 668.65 249.31 L 668.37 249.99 L 666.98 249.88 L 665.17 248.54 L 662.95 248.28 L 660.96 250.44 L 658.70 248.89 L 655.65 248.25 L 651.51 251.84 L 650.25 250.30 L 649.87 253.46 L 646.97 254.93 L 644.82 258.55 L 645.69 260.99 L 641.36 265.54 L 639.53 265.15 L 640.53 269.53 L 639.24 269.57 L 638.83 271.34 L 635.82 273.15 L 634.21 272.61 L 634.60 275.25 L 633.29 277.48 L 628.71 277.42 L 625.32 279.83 L 625.40 284.82 L 621.85 287.18 L 620.75 289.54 L 621.32 292.89 L 622.41 293.59 L 622.92 295.60 L 628.43 299.35 L 631.99 298.12 L 632.91 299.78 L 631.79 301.72 L 632.90 302.49 L 638.32 302.42 L 637.82 304.48 L 638.53 308.07 L 641.06 310.90 L 644.90 313.06 L 645.48 318.24 L 643.46 323.51 L 639.48 326.55 L 636.90 327.57 L 634.24 332.13 L 633.16 332.54 L 632.42 335.68 L 631.83 336.02 L 633.81 338.97 L 635.73 345.76 L 635.02 353.34 L 635.48 355.03 L 636.50 355.56 L 639.62 355.46 L 640.71 356.50 L 640.84 358.02 L 646.50 360.06 L 647.33 363.00 L 649.19 364.12 L 647.23 365.44 L 649.07 367.61 L 650.44 367.96 L 650.96 371.08 L 650.27 372.28 L 652.89 372.76 L 653.11 375.03 L 654.12 375.80 L 652.93 377.06 L 653.68 377.72 L 653.93 379.44 L 655.23 379.00 L 656.17 380.13 L 657.22 380.06 L 658.55 381.89 L 659.63 380.58 L 659.34 378.77 L 660.82 377.63 L 662.69 379.21 L 664.04 379.05 L 664.98 381.40 L 666.55 381.06 L 667.63 383.14 L 667.17 384.67 L 668.71 386.60 L 670.19 386.75 L 673.42 383.78 L 678.46 377.63 L 680.31 379.57 L 683.74 375.96 L 683.82 375.01 L 685.41 374.03 L 688.60 376.11 L 688.50 380.41 L 689.61 380.83 L 690.68 380.23 L 691.08 378.15 L 693.18 377.11 L 693.71 375.46 L 696.60 374.84 L 697.97 375.73 L 698.80 375.11 L 699.15 376.31 L 698.09 378.22 L 699.24 379.90 L 700.56 380.06 L 701.29 380.88 L 703.18 379.32 L 704.55 379.84 L 705.27 378.71 L 706.54 381.55 L 710.12 380.19 L 709.66 378.39 L 710.40 375.67 L 711.21 375.95 L 712.08 377.62 L 713.53 378.17 L 712.55 379.59 L 712.99 380.22 L 713.96 379.53 L 712.84 380.83 L 714.84 381.53 L 715.39 382.45 L 714.88 383.05 L 713.65 382.16 L 713.01 383.87 L 713.98 385.76 L 715.09 385.05 L 714.96 385.91 L 713.17 387.22 L 714.44 389.63 L 717.59 392.39 L 716.74 393.39 L 716.96 395.49 L 718.62 397.63 L 717.76 399.82 L 718.47 400.17 L 720.34 398.29 L 722.66 404.57 L 722.01 405.55 L 723.89 406.42 L 722.89 408.40 L 725.30 409.86 L 725.94 411.24 L 725.58 413.85 L 727.98 413.89 L 728.20 415.30 L 730.44 416.57 L 730.47 417.83 L 729.92 418.36 L 713.43 420.47 L 705.54 422.78 L 703.56 422.71 L 700.84 425.91 L 676.86 440.80 L 666.81 444.88 L 657.74 450.09 L 642.09 456.57 L 636.62 460.95 L 634.81 458.56 L 635.21 456.61 L 638.30 451.79 L 641.51 450.69 L 644.04 446.05 L 646.27 446.33 L 647.18 445.24 L 649.26 445.34 L 650.29 446.06 L 652.02 446.05 L 653.35 447.15 L 653.44 448.71 L 654.71 448.44 L 656.42 447.15 L 655.74 445.92 L 656.59 444.97 L 658.34 444.52 L 660.40 442.84 L 663.25 443.09 L 664.40 441.17 L 664.35 438.95 L 662.61 438.31 L 659.92 438.31 L 657.98 440.53 L 657.12 440.49 L 657.98 438.28 L 659.52 436.68 L 656.37 435.43 L 654.67 432.76 L 653.90 433.83 L 651.88 432.73 L 651.24 430.62 L 642.15 433.29 L 640.00 435.14 L 639.92 436.57 L 639.08 436.78 L 638.62 438.40 L 637.39 438.69 L 636.76 440.01 L 635.70 440.19 L 635.21 437.42 L 633.86 436.97 L 632.94 439.33 L 632.38 438.41 L 631.19 439.40 L 630.54 442.00 L 627.73 441.93 L 623.13 447.43 L 622.18 447.64 L 622.20 446.46 L 617.56 450.03 L 615.04 450.52 L 615.20 452.58 L 613.94 455.71 L 612.12 455.10 L 611.67 462.41 L 611.15 462.70 L 608.83 461.49 L 602.68 463.55 L 598.68 467.99 L 601.56 471.18 L 601.26 472.54 L 600.26 472.73 L 598.39 471.81 L 596.87 468.67 L 595.92 468.03 L 596.18 472.14 L 597.31 473.89 L 595.30 475.17 L 594.98 481.79 L 593.98 486.32 L 593.55 493.52 L 594.00 494.68 L 596.10 493.84 L 597.69 495.67 L 599.72 495.96 L 601.94 494.96 L 604.40 495.01 L 605.40 495.94 L 605.33 497.41 L 603.95 499.92 L 606.56 506.14 L 604.44 507.46 L 610.18 509.80 L 611.75 509.88 L 613.26 508.11 L 612.29 504.69 L 613.39 504.91 L 614.10 501.52 L 615.44 502.21 L 615.33 503.37 L 614.04 503.87 L 615.14 506.03 L 616.78 500.86 L 617.58 500.74 L 618.04 506.32 L 619.17 509.41 L 621.65 512.91 L 621.47 521.48 L 622.27 528.79 L 624.12 530.02 L 625.46 532.21 L 625.52 534.40 L 623.90 535.18 L 621.57 529.77 L 620.64 523.79 L 619.43 522.87 L 619.41 519.93 L 617.04 519.15 L 616.56 520.18 L 617.24 522.33 L 614.01 523.80 L 612.38 527.79 L 614.32 531.15 L 616.62 531.19 L 617.81 532.21 L 615.33 534.60 L 615.84 535.82 L 619.25 537.52 L 622.36 538.18 L 621.12 540.79 L 617.70 544.83 L 617.79 546.94 L 618.90 548.21 L 619.48 553.84 L 620.67 553.82 L 623.41 548.59 L 624.64 547.59 L 628.07 548.38 L 629.07 547.95 L 628.62 546.59 L 629.87 545.74 L 631.93 546.25 L 633.27 545.52 L 632.52 542.22 L 633.16 541.16 L 634.45 541.62 L 637.03 544.36 L 638.51 547.37 L 640.86 548.56 L 642.14 551.33 L 644.60 553.09 L 645.27 555.49 L 643.57 562.13 L 643.53 567.67 L 640.76 571.02 L 640.63 579.07 L 639.22 581.71 L 638.53 581.68 L 639.45 579.72 L 636.99 576.85 L 637.56 573.91 L 636.89 568.55 L 635.16 567.79 L 633.21 568.48 L 630.87 572.07 L 630.52 574.36 L 631.91 577.72 L 631.47 581.94 L 634.21 585.28 L 633.05 588.16 L 631.62 589.23 L 625.32 584.46 L 623.17 577.48 L 616.98 575.71 L 615.71 573.18 L 615.21 565.10 L 616.79 562.08 L 614.80 559.02 L 613.58 558.82 L 612.32 559.77 L 611.49 558.94 L 611.02 560.25 L 609.28 560.40 L 607.05 562.71 L 601.85 562.09 L 599.20 559.06 L 598.00 559.75 L 597.46 561.18 L 595.33 561.69 L 593.42 560.69 L 591.28 555.38 L 589.56 554.94 L 589.04 553.28 L 587.47 553.65 L 586.16 552.63 L 583.80 553.30 L 581.97 551.87 L 577.58 551.93 L 569.92 549.94 L 565.07 552.27 L 560.71 551.73 L 552.43 552.72 L 548.44 551.82 L 544.99 554.28 L 539.61 555.74 L 538.54 557.38 L 539.01 560.60 L 537.65 561.94 L 534.71 562.26 L 528.95 564.47 L 522.12 569.61 L 518.60 569.51 L 517.51 568.50 L 516.34 564.69 L 513.25 563.27 L 509.17 560.00 L 500.36 560.10 L 494.50 561.39 L 493.95 559.71 L 494.20 555.48 L 492.62 553.82 L 481.13 548.94 L 477.64 544.70 L 472.99 543.63 L 471.41 540.77 L 472.22 538.28 L 471.35 535.81 L 468.77 538.22 L 467.70 538.35 L 463.26 535.36 L 458.92 534.90 L 458.78 532.21 L 460.35 530.22 L 459.23 529.10 L 459.30 527.60 L 463.06 525.01 L 462.77 524.57 L 460.70 524.86 L 456.81 523.25 L 454.89 521.71 L 453.81 522.19 L 452.23 526.14 L 450.41 525.99 L 448.17 524.59 L 447.40 526.60 L 447.82 527.90 L 444.34 527.19 L 439.32 523.87 L 438.15 522.12 L 438.30 521.25 L 440.07 520.07 L 440.02 518.23 L 441.01 516.88 L 440.52 516.28 L 439.06 516.78 L 437.90 515.08 L 435.64 516.88 L 433.01 516.19 L 433.78 513.52 L 432.98 510.27 L 433.60 509.48 L 432.67 507.56 L 429.38 505.56 L 426.55 505.50 L 424.26 502.25 L 425.11 500.00 L 420.46 499.09 L 419.47 497.13 L 417.24 497.03 L 416.47 496.05 L 412.50 494.99 L 409.89 489.61 L 403.37 483.28 L 396.96 488.85 L 395.65 488.15 L 396.26 485.36 L 395.92 483.26 L 394.88 482.67 L 392.58 483.10 L 393.71 479.66 L 392.17 478.27 L 389.94 477.81 L 389.63 475.49 L 392.09 474.58 L 393.61 472.73 L 391.75 471.24 L 391.44 470.25 L 392.66 469.63 L 394.17 466.73 L 393.72 462.57 L 386.65 460.62 L 385.26 462.93 L 383.87 462.42 L 384.70 460.52 L 383.94 459.32 L 384.36 457.95 L 383.17 457.40 L 381.40 458.38 L 380.89 457.31 L 383.32 457.11 L 384.13 456.28 L 381.49 424.22 L 392.46 410.11 L 406.94 385.76 L 410.41 381.80 L 411.46 378.43 L 417.36 381.56 L 418.01 382.75 L 416.71 384.47 L 416.12 387.21 L 417.70 390.25 L 416.67 390.87 L 416.46 392.13 L 415.16 392.64 L 414.66 396.12 L 412.87 398.22 L 411.98 401.56 L 418.18 402.18 L 423.38 405.44 L 421.61 407.70 L 422.91 409.37 L 425.21 410.72 L 426.13 410.45 L 427.02 408.49 L 428.67 408.24 L 430.14 405.24 L 429.56 409.37 L 432.40 407.34 L 433.66 405.67 L 433.17 403.84 L 435.18 403.03 L 435.95 401.49 L 436.36 404.17 L 439.89 403.96 L 441.97 401.78 L 444.16 404.37 L 447.38 406.69 L 450.93 406.21 L 451.71 407.16 L 453.57 405.92 L 453.54 403.89 L 454.65 401.90 L 459.20 397.73 L 458.84 395.30 L 459.51 392.24 L 458.61 387.69 L 461.05 388.76 L 462.68 388.44 L 461.45 386.39 L 462.01 384.96 L 460.97 384.40 L 460.76 382.69 L 462.10 380.16 L 464.98 378.42 L 465.37 375.14 L 467.81 373.53 L 468.55 369.47 L 467.39 368.90 L 468.71 367.72 L 469.99 367.83 L 469.34 365.06 L 470.69 363.75 L 471.00 361.27 L 470.54 360.62 L 472.33 361.38 L 476.52 360.95 L 476.60 358.83 L 478.25 358.76 L 479.34 360.85 L 481.17 361.34 L 483.00 362.86 L 483.48 362.13 L 482.94 360.58 L 484.62 359.68 L 484.64 355.95 L 487.83 356.06 L 488.17 354.45 L 486.72 350.20 L 486.77 347.94 L 490.36 348.53 L 497.07 348.29 L 500.20 345.13 L 502.14 344.78 L 503.41 342.80 L 506.16 342.10 L 507.03 342.58 L 512.28 342.19 L 513.96 343.25 L 515.56 343.22 L 517.09 350.65 L 518.71 350.29 L 520.60 351.21 L 521.43 350.45 L 522.84 350.76 L 522.67 352.51 L 526.07 351.61 L 528.83 351.76 L 530.89 350.76 L 530.69 347.77 L 531.28 346.47 L 528.19 341.07 L 530.24 338.99 L 528.26 337.29 L 529.95 335.36 L 533.40 335.15 L 533.38 333.55 L 531.11 331.17 L 530.40 326.82 L 531.41 325.37 L 533.39 326.19 L 535.31 323.73 L 540.07 323.23 L 541.19 325.16 L 543.23 322.94 L 544.16 323.68 L 548.58 323.81 L 549.79 322.77 L 559.98 320.12 L 561.72 317.55 L 561.32 316.84 L 564.06 314.23 L 563.86 312.75 L 565.16 310.53 L 565.19 308.90 L 568.33 310.04 L 568.25 307.84 L 569.80 306.57 L 569.89 304.28 L 566.48 304.03 L 564.25 300.25 L 562.50 299.05 L 565.28 294.07 L 564.12 294.18 L 561.84 292.71 L 560.11 293.34 L 559.12 291.79 L 559.06 288.03 L 555.55 289.60 L 552.35 289.52 L 550.87 286.83 L 552.88 282.45 L 551.68 281.30 L 551.33 278.52 L 547.56 276.92 L 547.17 274.99 L 544.35 273.57 L 543.40 271.93 L 545.93 270.16 L 547.43 270.54 L 549.05 269.83 L 549.87 268.20 L 551.80 270.19 L 552.12 263.51 L 553.19 261.45 L 552.58 260.09 L 554.14 256.52 L 556.99 256.68 L 559.42 254.93 L 559.29 250.36 L 557.43 248.72 L 549.00 247.59 L 548.60 246.40 L 549.12 243.57 L 551.02 241.39 L 554.34 239.60 L 559.64 238.50 L 563.21 236.53 L 565.56 237.46 L 567.15 237.30 L 568.63 234.94 L 570.50 234.18 L 573.78 234.38 L 575.04 236.54 L 579.05 230.67 L 580.17 227.63 L 581.84 225.91 L 582.26 223.86 L 581.71 221.44 L 582.86 219.36 L 584.30 218.38 L 585.59 214.26 L 584.79 212.30 L 585.25 210.77 L 584.91 207.71 L 590.20 211.02 L 592.94 213.65 L 594.64 214.16 L 595.37 215.56 L 598.22 215.62 L 599.54 216.22 L 601.05 218.59 L 602.73 218.65 L 602.42 224.03 L 605.46 221.07 L 609.20 219.66 L 609.87 218.24 L 611.89 217.19 L 613.51 218.57 L 615.58 219.22 L 618.67 218.84 L 619.75 218.07 L 619.89 216.85 L 623.33 216.71 L 624.27 217.92 L 626.38 218.94 L 629.60 218.25 L 630.32 217.35 L 628.86 215.54 L 629.04 214.30 L 632.48 214.14 L 636.66 209.11 L 642.76 206.75 Z" />
    <path class="map-region map-region--ith3" d="M 622.38 474.48 L 621.61 478.63 L 619.13 478.26 L 619.25 477.28 L 621.00 475.91 L 622.38 473.47 L 627.23 462.75 L 629.73 459.43 L 631.30 460.03 L 626.18 466.87 L 622.38 474.48 Z" />
    <path class="map-region map-region--ith4" d="M 688.30 215.34 L 689.35 216.50 L 690.99 217.12 L 692.49 216.72 L 693.27 217.36 L 693.10 220.78 L 694.05 221.52 L 695.79 221.94 L 697.63 221.05 L 700.69 221.59 L 706.46 220.85 L 709.06 222.33 L 710.39 221.72 L 714.82 223.00 L 719.66 222.66 L 721.04 223.68 L 728.86 222.68 L 731.12 223.91 L 737.10 225.39 L 740.30 225.18 L 741.97 227.45 L 744.07 228.62 L 747.29 229.12 L 749.10 231.01 L 749.34 232.33 L 750.31 232.52 L 751.97 231.08 L 753.32 231.47 L 754.80 230.86 L 758.50 231.07 L 761.81 232.61 L 765.00 229.24 L 768.70 229.42 L 769.17 227.26 L 773.98 228.82 L 774.19 230.68 L 776.30 231.33 L 783.26 231.56 L 787.71 229.76 L 788.03 231.77 L 789.92 233.69 L 793.59 232.38 L 795.97 232.93 L 797.66 235.41 L 800.16 233.90 L 804.32 234.65 L 812.01 238.64 L 817.35 238.60 L 817.57 241.69 L 815.81 243.39 L 816.52 247.15 L 814.55 249.77 L 815.05 252.21 L 814.33 254.68 L 813.10 255.87 L 809.23 255.33 L 807.59 254.29 L 800.81 255.67 L 798.70 257.59 L 797.92 261.56 L 796.50 263.62 L 793.18 265.17 L 792.34 266.30 L 790.94 266.02 L 789.50 266.92 L 789.61 267.90 L 784.62 269.77 L 782.84 271.32 L 780.11 271.01 L 778.58 271.64 L 778.31 272.73 L 779.80 276.49 L 778.40 279.19 L 776.68 279.21 L 775.59 280.06 L 775.38 282.48 L 773.93 282.57 L 773.39 283.71 L 769.52 284.09 L 770.16 285.78 L 771.06 285.83 L 771.74 287.17 L 772.12 290.56 L 773.93 295.27 L 776.07 297.39 L 774.77 298.51 L 775.23 299.63 L 774.42 300.87 L 776.28 302.77 L 779.47 301.30 L 779.36 298.96 L 785.90 299.35 L 787.70 300.80 L 791.02 300.27 L 791.27 301.52 L 793.85 301.83 L 795.44 302.93 L 796.86 306.74 L 799.60 305.93 L 799.80 306.37 L 802.82 306.24 L 803.29 307.18 L 805.98 305.66 L 809.44 307.18 L 810.48 309.01 L 807.32 316.79 L 801.58 321.61 L 800.56 323.34 L 798.48 324.54 L 797.45 326.37 L 793.38 327.88 L 791.38 330.88 L 787.40 332.08 L 786.72 332.83 L 786.79 334.75 L 788.47 336.21 L 786.74 341.04 L 784.46 342.18 L 783.89 343.31 L 787.32 348.38 L 788.95 348.68 L 791.25 351.18 L 792.96 351.59 L 794.21 350.60 L 796.50 350.77 L 799.17 347.06 L 804.18 347.66 L 805.97 346.90 L 807.13 347.96 L 805.94 354.71 L 806.48 357.09 L 802.28 365.06 L 800.60 366.03 L 799.34 368.71 L 800.12 369.90 L 797.87 374.23 L 797.83 376.20 L 799.53 377.93 L 800.82 381.12 L 800.70 383.46 L 804.84 385.56 L 810.65 385.21 L 821.76 394.01 L 823.99 394.01 L 824.87 395.08 L 827.97 395.96 L 829.39 397.19 L 830.92 400.47 L 834.07 403.63 L 834.06 407.38 L 839.94 414.45 L 845.86 418.50 L 846.09 419.20 L 839.23 423.73 L 838.78 426.05 L 837.15 427.17 L 836.51 428.64 L 832.55 429.31 L 827.00 428.86 L 822.13 426.14 L 818.62 426.65 L 818.31 424.67 L 820.11 423.63 L 824.30 424.29 L 827.22 425.76 L 830.10 423.70 L 826.70 422.26 L 825.86 420.81 L 825.72 418.62 L 823.74 419.41 L 823.87 418.62 L 822.80 418.03 L 822.39 416.66 L 824.84 414.55 L 821.86 408.14 L 819.90 406.07 L 817.30 404.77 L 816.70 402.95 L 807.10 393.57 L 805.57 391.13 L 800.28 390.15 L 798.37 387.71 L 797.84 389.90 L 795.94 389.37 L 794.06 386.96 L 792.96 386.82 L 791.97 387.73 L 792.24 389.07 L 790.10 392.77 L 790.58 395.57 L 789.72 396.49 L 790.78 397.74 L 794.62 399.48 L 793.73 400.52 L 790.97 400.85 L 785.18 404.26 L 782.83 404.09 L 781.19 406.74 L 777.26 409.97 L 771.21 410.30 L 769.61 409.41 L 770.20 408.80 L 772.98 409.24 L 774.57 408.46 L 775.65 406.98 L 778.49 407.76 L 779.21 407.08 L 779.44 405.57 L 781.30 403.70 L 779.71 401.64 L 776.95 402.09 L 773.93 400.22 L 771.51 400.41 L 761.63 396.46 L 760.83 395.50 L 755.24 395.59 L 754.72 394.58 L 752.48 395.14 L 750.30 394.58 L 748.67 393.76 L 747.82 390.78 L 745.42 391.89 L 743.80 390.49 L 742.51 390.49 L 741.82 392.71 L 740.19 392.66 L 739.34 394.45 L 738.28 394.19 L 737.01 394.93 L 736.11 394.06 L 736.32 393.33 L 734.97 390.77 L 733.94 392.54 L 732.36 393.63 L 732.80 394.70 L 731.44 397.79 L 729.54 398.40 L 728.74 401.44 L 727.80 401.84 L 727.91 402.94 L 726.46 402.49 L 726.16 403.21 L 727.29 407.15 L 732.25 408.14 L 737.99 405.57 L 737.30 407.62 L 731.94 412.94 L 730.44 416.57 L 728.20 415.30 L 727.98 413.89 L 725.58 413.85 L 725.94 411.24 L 725.30 409.86 L 722.89 408.40 L 723.89 406.42 L 722.01 405.55 L 722.66 404.57 L 720.34 398.29 L 718.47 400.17 L 717.76 399.82 L 718.62 397.63 L 716.96 395.49 L 716.74 393.39 L 717.59 392.39 L 714.44 389.63 L 713.17 387.22 L 714.96 385.91 L 715.09 385.05 L 713.98 385.76 L 713.01 383.87 L 713.65 382.16 L 714.88 383.05 L 715.39 382.45 L 714.84 381.53 L 712.84 380.83 L 713.96 379.53 L 712.99 380.22 L 712.55 379.59 L 713.53 378.17 L 712.08 377.62 L 711.21 375.95 L 710.40 375.67 L 709.66 378.39 L 710.12 380.19 L 706.54 381.55 L 705.27 378.71 L 704.55 379.84 L 703.18 379.32 L 701.29 380.88 L 700.56 380.06 L 699.24 379.90 L 698.09 378.22 L 699.15 376.31 L 698.80 375.11 L 697.97 375.73 L 696.60 374.84 L 693.71 375.46 L 693.18 377.11 L 691.08 378.15 L 690.68 380.23 L 689.61 380.83 L 688.50 380.41 L 688.60 376.11 L 685.41 374.03 L 683.82 375.01 L 683.74 375.96 L 680.31 379.57 L 678.46 377.63 L 673.42 383.78 L 670.19 386.75 L 668.71 386.60 L 667.17 384.67 L 667.63 383.14 L 666.55 381.06 L 664.98 381.40 L 664.04 379.05 L 662.69 379.21 L 660.82 377.63 L 659.34 378.77 L 659.63 380.58 L 658.55 381.89 L 657.22 380.06 L 656.17 380.13 L 655.23 379.00 L 653.93 379.44 L 653.68 377.72 L 652.93 377.06 L 654.12 375.80 L 653.11 375.03 L 652.89 372.76 L 650.27 372.28 L 650.96 371.08 L 650.44 367.96 L 649.07 367.61 L 647.23 365.44 L 649.19 364.12 L 647.33 363.00 L 646.50 360.06 L 640.84 358.02 L 640.71 356.50 L 639.62 355.46 L 636.50 355.56 L 635.48 355.03 L 635.02 353.34 L 635.73 345.76 L 633.81 338.97 L 631.83 336.02 L 632.42 335.68 L 633.16 332.54 L 634.24 332.13 L 636.90 327.57 L 639.48 326.55 L 643.46 323.51 L 645.48 318.24 L 644.90 313.06 L 641.06 310.90 L 638.53 308.07 L 637.82 304.48 L 638.32 302.42 L 632.90 302.49 L 631.79 301.72 L 632.91 299.78 L 631.99 298.12 L 628.43 299.35 L 622.92 295.60 L 622.41 293.59 L 621.32 292.89 L 620.75 289.54 L 621.85 287.18 L 625.40 284.82 L 625.32 279.83 L 628.71 277.42 L 633.29 277.48 L 634.60 275.25 L 634.21 272.61 L 635.82 273.15 L 638.83 271.34 L 639.24 269.57 L 640.53 269.53 L 639.53 265.15 L 641.36 265.54 L 645.69 260.99 L 644.82 258.55 L 646.97 254.93 L 649.87 253.46 L 650.25 250.30 L 651.51 251.84 L 655.65 248.25 L 658.70 248.89 L 660.96 250.44 L 662.95 248.28 L 665.17 248.54 L 666.98 249.88 L 668.37 249.99 L 668.65 249.31 L 667.36 246.22 L 664.45 243.22 L 664.32 240.73 L 663.04 237.83 L 662.83 234.50 L 665.15 228.68 L 666.15 227.94 L 667.86 228.73 L 672.27 223.12 L 675.18 222.44 L 674.98 218.95 L 675.87 217.71 L 680.24 215.39 L 682.18 213.38 L 684.99 213.54 L 687.85 214.85 L 688.30 215.34 Z" />
    <path class="map-region map-region--ith5" d="M 280.69 526.39 L 281.16 526.86 L 283.59 526.13 L 289.44 520.12 L 291.39 520.66 L 296.34 526.97 L 296.96 528.35 L 295.91 531.49 L 296.44 532.96 L 298.56 534.28 L 300.11 536.67 L 300.11 538.77 L 304.18 537.70 L 304.81 540.63 L 306.12 542.39 L 307.79 542.64 L 311.26 541.15 L 313.43 540.14 L 315.23 538.29 L 316.38 538.39 L 318.36 541.03 L 320.17 541.46 L 322.62 540.30 L 328.97 543.66 L 330.25 546.23 L 331.70 547.55 L 335.60 547.38 L 336.61 549.78 L 339.62 551.19 L 343.49 554.20 L 348.35 550.55 L 351.01 551.01 L 354.36 558.67 L 363.58 562.64 L 365.72 564.62 L 372.90 565.71 L 380.73 562.39 L 381.48 562.56 L 386.31 554.00 L 388.73 551.91 L 389.79 549.92 L 390.98 552.29 L 390.13 554.11 L 390.53 554.74 L 391.85 554.33 L 393.02 552.78 L 393.60 549.99 L 395.70 548.90 L 395.99 549.78 L 397.00 550.10 L 398.47 554.77 L 397.96 557.47 L 404.78 559.40 L 405.83 559.04 L 406.63 560.30 L 407.61 559.90 L 409.81 560.84 L 410.96 560.32 L 412.60 562.15 L 414.93 561.60 L 416.61 564.01 L 418.39 563.61 L 418.20 564.58 L 418.85 564.73 L 422.16 562.64 L 425.50 562.96 L 427.17 561.82 L 427.06 560.71 L 429.24 560.41 L 433.53 556.43 L 442.45 557.56 L 444.39 554.89 L 450.93 556.61 L 455.35 560.59 L 456.80 559.53 L 462.01 559.74 L 464.14 558.65 L 467.67 558.30 L 468.81 557.04 L 472.52 559.45 L 474.23 556.14 L 476.75 555.74 L 476.75 554.85 L 478.39 555.55 L 480.24 554.99 L 484.46 557.21 L 487.24 555.70 L 490.19 556.36 L 490.85 557.61 L 494.31 557.32 L 493.95 559.71 L 494.50 561.39 L 500.36 560.10 L 509.17 560.00 L 513.25 563.27 L 516.34 564.69 L 517.51 568.50 L 518.60 569.51 L 522.12 569.61 L 528.95 564.47 L 534.71 562.26 L 537.65 561.94 L 539.01 560.60 L 538.54 557.38 L 539.61 555.74 L 544.99 554.28 L 548.44 551.82 L 552.43 552.72 L 560.71 551.73 L 565.07 552.27 L 569.92 549.94 L 577.58 551.93 L 581.97 551.87 L 583.80 553.30 L 586.16 552.63 L 587.47 553.65 L 589.04 553.28 L 589.56 554.94 L 591.28 555.38 L 593.42 560.69 L 595.33 561.69 L 597.46 561.18 L 598.00 559.75 L 599.20 559.06 L 601.85 562.09 L 607.05 562.71 L 609.28 560.40 L 611.02 560.25 L 611.49 558.94 L 612.32 559.77 L 613.58 558.82 L 614.80 559.02 L 616.79 562.08 L 615.21 565.10 L 615.71 573.18 L 616.98 575.71 L 623.17 577.48 L 625.32 584.46 L 631.62 589.23 L 628.85 590.94 L 622.18 588.97 L 623.66 587.26 L 625.98 586.72 L 619.30 579.22 L 615.72 579.61 L 613.58 582.32 L 613.53 583.76 L 615.41 584.63 L 612.22 590.56 L 610.51 595.28 L 609.17 607.54 L 609.22 610.55 L 610.37 613.07 L 611.06 617.75 L 614.40 624.55 L 614.57 628.20 L 615.24 629.25 L 614.79 645.11 L 616.06 655.88 L 619.65 667.11 L 621.19 676.79 L 625.10 692.56 L 626.57 697.60 L 631.18 707.25 L 632.44 707.91 L 634.81 712.11 L 646.41 726.44 L 653.59 733.86 L 655.36 734.59 L 656.64 734.19 L 664.54 744.72 L 672.48 752.40 L 677.07 755.44 L 679.55 756.34 L 681.28 755.82 L 681.83 757.56 L 678.10 765.17 L 677.96 767.79 L 678.90 770.89 L 677.34 773.97 L 678.78 775.98 L 678.14 777.26 L 674.34 778.63 L 673.84 779.50 L 671.65 779.69 L 671.10 782.20 L 671.49 784.71 L 669.97 785.57 L 668.44 784.87 L 666.11 785.06 L 663.80 786.14 L 661.59 784.17 L 661.58 782.93 L 662.67 781.76 L 662.24 780.99 L 660.77 780.97 L 660.21 777.66 L 658.50 777.18 L 658.51 773.08 L 655.79 773.47 L 654.66 776.15 L 651.75 777.30 L 648.79 775.28 L 648.22 774.12 L 645.80 775.31 L 644.42 773.68 L 644.10 770.85 L 645.04 766.16 L 648.06 761.76 L 646.87 756.17 L 648.00 752.80 L 647.77 751.64 L 646.87 751.64 L 639.26 756.07 L 636.79 758.60 L 634.80 758.50 L 633.55 759.46 L 632.40 758.85 L 632.52 761.19 L 633.83 763.76 L 633.01 765.64 L 633.43 768.13 L 632.94 769.55 L 634.25 770.33 L 637.73 769.01 L 639.10 771.06 L 640.57 771.40 L 639.72 774.25 L 638.60 775.67 L 636.32 775.23 L 634.65 775.70 L 632.74 774.92 L 631.84 775.65 L 632.27 776.13 L 631.47 776.87 L 630.55 780.86 L 631.55 785.06 L 629.64 787.34 L 627.02 787.88 L 624.67 790.48 L 623.49 789.91 L 621.76 790.19 L 619.88 789.26 L 615.49 791.67 L 616.07 793.33 L 615.34 797.51 L 611.47 798.54 L 610.78 799.19 L 611.06 799.89 L 609.97 800.26 L 607.71 798.73 L 605.19 799.04 L 604.62 800.59 L 603.16 801.55 L 603.50 802.63 L 602.75 804.20 L 599.75 801.02 L 598.27 798.11 L 592.96 800.60 L 590.44 799.77 L 586.15 802.43 L 584.50 801.98 L 583.79 799.91 L 582.68 799.16 L 581.09 799.56 L 575.98 797.27 L 573.36 798.12 L 568.74 795.22 L 567.74 792.37 L 563.87 791.61 L 562.99 790.62 L 562.56 787.79 L 560.71 788.72 L 559.32 788.66 L 556.88 787.18 L 555.43 787.19 L 552.91 788.78 L 549.65 786.89 L 546.19 783.11 L 545.39 781.27 L 537.57 777.57 L 535.78 775.23 L 534.33 774.71 L 534.14 772.72 L 535.34 765.89 L 532.11 764.26 L 530.53 762.64 L 531.85 759.35 L 528.10 755.40 L 526.39 754.74 L 525.27 751.76 L 526.13 750.24 L 525.80 748.92 L 527.67 748.71 L 527.02 746.20 L 530.34 745.57 L 532.15 742.57 L 532.64 739.08 L 537.94 732.24 L 538.56 729.89 L 539.71 728.67 L 540.37 725.44 L 539.12 724.38 L 536.00 725.32 L 530.14 725.04 L 529.29 726.78 L 525.76 729.60 L 524.48 727.45 L 520.73 725.73 L 518.81 725.86 L 516.60 727.13 L 517.21 724.86 L 519.00 724.34 L 519.34 721.97 L 521.13 720.63 L 520.94 717.80 L 519.98 717.17 L 519.04 717.91 L 517.27 717.00 L 515.20 717.23 L 513.66 715.96 L 512.25 716.39 L 510.77 718.74 L 507.13 717.98 L 506.30 716.77 L 505.06 716.76 L 502.45 714.08 L 502.99 713.28 L 502.57 712.79 L 500.32 712.45 L 500.08 710.96 L 498.86 711.60 L 497.23 709.03 L 498.14 706.97 L 497.65 705.08 L 493.63 701.25 L 489.95 705.19 L 488.59 708.40 L 487.49 709.41 L 482.38 708.34 L 479.98 710.44 L 478.60 714.06 L 475.83 715.10 L 475.92 715.93 L 473.62 718.37 L 472.31 717.68 L 467.78 717.69 L 464.32 719.37 L 461.68 719.18 L 461.88 721.12 L 465.07 723.94 L 466.25 724.02 L 469.39 726.31 L 470.72 726.56 L 471.28 728.73 L 469.86 728.76 L 468.67 730.13 L 466.21 729.22 L 464.25 729.80 L 462.62 729.45 L 456.68 727.16 L 453.55 727.93 L 452.07 727.64 L 446.23 731.68 L 444.27 731.21 L 441.02 731.58 L 440.71 730.65 L 437.46 730.15 L 436.90 729.02 L 434.43 727.29 L 434.80 725.39 L 435.86 724.79 L 436.14 723.74 L 435.99 722.16 L 435.00 721.81 L 433.24 722.38 L 433.05 723.64 L 431.02 725.01 L 427.57 731.76 L 423.81 734.58 L 422.42 737.15 L 420.14 736.72 L 420.30 732.59 L 416.91 729.88 L 412.68 729.84 L 412.08 727.92 L 410.21 726.38 L 408.67 727.03 L 406.51 725.81 L 405.42 724.26 L 402.07 722.55 L 399.30 718.67 L 393.42 718.01 L 388.66 718.22 L 386.83 719.00 L 383.41 717.59 L 382.13 720.25 L 380.65 721.48 L 380.94 725.48 L 377.25 726.54 L 375.21 725.50 L 374.46 723.31 L 366.94 718.07 L 366.21 715.99 L 366.66 714.44 L 364.84 711.99 L 362.23 710.11 L 361.55 708.69 L 362.13 705.55 L 358.33 703.11 L 354.34 704.02 L 351.28 702.07 L 350.34 699.34 L 345.53 695.21 L 343.33 694.77 L 341.39 695.22 L 337.73 693.86 L 335.10 692.01 L 328.66 695.44 L 326.27 692.68 L 324.74 689.11 L 323.66 688.25 L 322.34 688.54 L 320.60 686.04 L 319.55 685.95 L 319.25 684.83 L 316.56 682.94 L 315.58 680.24 L 312.87 678.15 L 309.91 678.25 L 306.58 679.50 L 300.32 674.27 L 298.99 674.01 L 292.58 669.55 L 291.30 667.93 L 293.65 662.27 L 292.53 659.58 L 290.19 659.61 L 289.02 658.49 L 288.75 655.99 L 282.82 654.25 L 280.05 654.93 L 278.91 654.00 L 267.50 655.35 L 266.84 658.13 L 264.12 660.29 L 260.75 665.37 L 258.54 667.35 L 258.01 669.04 L 258.98 670.82 L 256.70 671.15 L 256.59 672.44 L 255.79 672.78 L 252.78 672.33 L 248.03 676.34 L 246.91 675.96 L 244.27 666.77 L 241.54 665.90 L 236.62 661.56 L 234.05 662.91 L 232.87 661.75 L 230.42 660.98 L 228.89 663.21 L 221.28 664.13 L 219.90 665.27 L 219.23 666.93 L 217.99 663.87 L 214.12 665.42 L 213.49 665.05 L 214.39 661.37 L 216.18 660.16 L 216.73 657.20 L 218.09 654.85 L 218.11 652.19 L 219.86 652.66 L 221.74 652.04 L 221.48 648.56 L 222.77 642.62 L 222.13 640.76 L 220.65 639.21 L 221.25 637.21 L 219.72 635.82 L 217.76 635.18 L 215.97 635.93 L 215.08 634.07 L 213.70 634.85 L 212.32 633.47 L 211.33 633.42 L 210.88 629.58 L 208.87 628.11 L 208.24 630.34 L 206.49 630.49 L 205.40 632.98 L 202.96 631.40 L 199.88 632.62 L 196.05 628.69 L 195.25 628.83 L 194.42 627.07 L 192.41 626.73 L 191.59 628.73 L 190.14 629.03 L 186.46 628.28 L 187.64 626.08 L 186.17 624.37 L 180.25 625.54 L 179.89 624.70 L 179.55 618.17 L 180.70 615.85 L 179.83 610.82 L 182.85 611.35 L 185.71 610.73 L 184.44 607.55 L 184.79 604.69 L 187.34 608.80 L 188.06 611.72 L 191.46 610.92 L 191.78 612.02 L 193.74 611.85 L 194.56 610.44 L 197.43 610.03 L 197.46 609.30 L 196.42 608.87 L 195.25 606.96 L 195.88 604.49 L 197.66 603.05 L 198.55 600.90 L 197.04 599.19 L 191.96 595.96 L 192.11 593.31 L 196.14 591.06 L 196.99 587.73 L 200.14 586.42 L 202.03 584.86 L 202.86 583.20 L 200.81 579.65 L 199.77 573.59 L 197.69 572.97 L 197.02 571.71 L 195.29 572.27 L 193.29 571.43 L 192.67 570.81 L 192.69 569.28 L 190.76 568.36 L 192.72 565.19 L 193.00 562.78 L 192.06 560.83 L 195.33 560.29 L 196.76 558.92 L 197.42 556.11 L 199.25 554.22 L 198.99 552.24 L 200.64 547.80 L 202.84 546.97 L 204.63 543.16 L 203.76 542.39 L 204.61 538.62 L 203.95 537.44 L 208.45 532.47 L 209.94 531.98 L 210.01 530.32 L 213.03 530.50 L 213.58 528.26 L 217.46 527.95 L 221.43 526.27 L 222.91 526.51 L 225.67 530.69 L 226.72 531.31 L 229.35 528.60 L 227.24 522.48 L 229.07 520.32 L 232.15 525.84 L 232.89 526.46 L 234.14 525.97 L 234.72 526.86 L 237.74 524.97 L 239.01 520.30 L 239.87 520.21 L 241.48 521.58 L 242.02 523.30 L 240.81 529.01 L 241.50 530.31 L 247.18 531.47 L 249.09 533.54 L 252.31 535.26 L 253.70 535.04 L 257.75 530.52 L 256.80 525.75 L 257.10 524.48 L 258.57 524.39 L 259.85 525.46 L 261.59 529.05 L 263.38 530.43 L 266.44 531.47 L 266.91 535.79 L 267.92 536.54 L 269.32 534.46 L 269.02 530.57 L 269.27 528.71 L 270.04 527.87 L 271.29 527.64 L 273.47 528.49 L 275.34 531.54 L 276.47 532.02 L 278.13 530.91 L 278.78 529.15 L 278.44 527.38 L 275.76 524.45 L 275.64 521.91 L 280.93 519.15 L 282.43 520.82 L 281.83 523.74 L 280.71 525.37 L 280.69 526.39 Z" />
    <path class="map-region map-region--ith1" d="M 607.14 125.22 L 609.26 127.85 L 606.04 130.12 L 604.20 136.39 L 600.17 136.98 L 598.47 137.91 L 596.03 136.93 L 592.40 140.45 L 593.55 143.16 L 593.53 144.90 L 594.67 145.63 L 593.98 149.35 L 594.87 150.64 L 597.53 151.93 L 599.01 154.58 L 596.91 158.45 L 595.57 159.34 L 598.19 160.57 L 599.25 160.20 L 601.94 160.89 L 603.26 162.73 L 603.62 164.63 L 606.12 167.41 L 609.38 164.11 L 613.67 165.17 L 614.41 166.21 L 614.40 167.80 L 616.48 169.19 L 616.23 170.85 L 617.19 173.47 L 618.41 174.02 L 618.38 175.54 L 615.40 179.21 L 616.37 181.84 L 614.84 184.03 L 615.64 185.81 L 619.11 185.56 L 625.74 187.47 L 627.41 194.21 L 629.50 199.36 L 633.82 202.51 L 635.57 202.85 L 637.66 204.83 L 642.21 205.51 L 642.76 206.75 L 636.66 209.11 L 632.48 214.14 L 629.04 214.30 L 628.86 215.54 L 630.32 217.35 L 629.60 218.25 L 626.38 218.94 L 624.27 217.92 L 623.33 216.71 L 619.89 216.85 L 619.75 218.07 L 618.67 218.84 L 615.58 219.22 L 613.51 218.57 L 611.89 217.19 L 609.87 218.24 L 609.20 219.66 L 605.46 221.07 L 602.42 224.03 L 602.73 218.65 L 601.05 218.59 L 599.54 216.22 L 598.22 215.62 L 595.37 215.56 L 594.64 214.16 L 592.94 213.65 L 590.20 211.02 L 584.91 207.71 L 585.25 210.77 L 584.79 212.30 L 585.59 214.26 L 584.30 218.38 L 582.86 219.36 L 581.71 221.44 L 582.26 223.86 L 581.84 225.91 L 580.17 227.63 L 579.05 230.67 L 575.04 236.54 L 573.78 234.38 L 570.50 234.18 L 568.63 234.94 L 567.15 237.30 L 565.56 237.46 L 563.21 236.53 L 559.64 238.50 L 554.34 239.60 L 551.02 241.39 L 550.50 238.73 L 548.70 236.63 L 546.28 238.57 L 545.01 240.76 L 539.06 242.19 L 535.14 240.39 L 532.51 242.48 L 528.09 243.64 L 525.50 243.54 L 524.22 242.84 L 523.40 243.34 L 525.72 246.54 L 525.07 248.70 L 524.48 248.18 L 522.47 249.06 L 522.70 250.46 L 521.33 255.18 L 521.45 258.42 L 518.90 263.75 L 518.84 265.74 L 517.73 266.78 L 513.81 267.20 L 512.74 273.41 L 511.51 274.55 L 509.73 273.14 L 501.40 270.75 L 501.60 272.42 L 499.30 273.69 L 498.17 276.60 L 493.40 278.57 L 491.13 278.67 L 489.97 281.62 L 488.68 282.95 L 485.32 283.47 L 484.72 284.52 L 487.59 285.44 L 489.74 289.10 L 490.05 290.75 L 488.74 291.48 L 484.71 290.69 L 484.30 288.60 L 481.75 286.18 L 482.10 284.15 L 479.68 285.24 L 477.94 287.54 L 478.55 289.17 L 477.20 292.09 L 475.01 291.68 L 468.75 297.87 L 463.20 299.99 L 459.93 298.63 L 458.70 297.38 L 458.53 296.25 L 460.04 293.69 L 460.57 293.49 L 461.64 294.64 L 462.63 292.74 L 461.96 292.05 L 458.87 291.93 L 457.62 291.26 L 454.94 287.65 L 453.65 287.11 L 454.38 286.19 L 456.54 285.70 L 458.95 283.22 L 462.79 275.15 L 461.13 271.77 L 461.42 270.76 L 463.08 270.12 L 462.35 269.08 L 464.35 262.30 L 463.31 260.10 L 463.83 259.35 L 463.35 257.59 L 464.61 255.83 L 464.03 252.25 L 465.13 250.86 L 463.52 244.31 L 460.43 241.40 L 459.35 243.25 L 457.62 244.03 L 456.47 245.53 L 452.42 246.80 L 449.83 243.89 L 446.73 242.76 L 445.68 236.84 L 442.35 239.84 L 438.90 240.38 L 440.97 241.78 L 442.73 245.78 L 444.74 254.24 L 444.11 254.93 L 442.51 253.79 L 440.07 253.88 L 438.04 250.86 L 434.67 247.82 L 431.03 246.45 L 429.11 246.89 L 427.82 249.16 L 425.25 250.05 L 424.47 252.61 L 421.42 254.56 L 418.82 254.36 L 417.40 253.29 L 414.45 256.14 L 405.84 254.66 L 400.84 246.04 L 397.85 246.43 L 393.92 251.00 L 391.07 251.72 L 388.98 253.46 L 387.05 252.95 L 382.52 254.44 L 380.67 253.72 L 377.61 249.55 L 374.29 248.53 L 370.18 244.82 L 362.52 243.64 L 361.11 244.39 L 360.05 244.10 L 357.51 240.93 L 356.75 236.98 L 357.75 234.96 L 359.40 234.23 L 360.16 231.75 L 359.88 229.83 L 361.58 225.33 L 361.35 221.93 L 362.30 219.81 L 356.02 214.74 L 349.73 215.48 L 348.12 211.27 L 348.09 208.26 L 346.87 205.66 L 348.31 204.77 L 349.75 201.72 L 351.29 200.95 L 351.86 199.01 L 349.49 195.85 L 354.10 192.20 L 355.19 192.11 L 355.07 187.93 L 352.51 184.78 L 353.41 183.20 L 356.50 181.42 L 357.35 179.21 L 357.45 176.09 L 358.56 175.13 L 358.50 173.74 L 359.31 172.42 L 359.13 171.27 L 360.56 170.61 L 363.34 172.67 L 366.40 173.13 L 370.72 172.34 L 371.23 172.88 L 370.99 174.28 L 373.13 173.86 L 376.06 172.15 L 376.99 170.88 L 380.97 169.35 L 384.76 168.98 L 387.06 167.10 L 387.71 167.98 L 390.45 168.96 L 391.09 169.85 L 391.03 171.90 L 393.83 172.93 L 394.93 174.66 L 399.29 175.75 L 400.68 177.81 L 398.90 179.51 L 397.68 181.89 L 395.35 182.84 L 395.95 184.77 L 399.56 185.24 L 403.81 183.40 L 407.92 187.31 L 409.38 187.62 L 411.27 186.21 L 417.41 189.79 L 423.28 187.46 L 427.42 187.57 L 433.25 188.97 L 435.88 188.30 L 437.18 189.41 L 440.08 181.24 L 442.02 180.64 L 445.66 177.91 L 444.12 174.60 L 444.23 171.49 L 448.22 164.44 L 447.82 159.50 L 449.48 158.71 L 450.27 155.90 L 453.75 156.43 L 455.86 155.26 L 457.78 153.01 L 457.15 152.04 L 457.24 148.81 L 458.77 149.32 L 460.61 148.01 L 461.74 147.96 L 463.40 149.30 L 465.22 148.18 L 468.16 148.01 L 471.14 145.90 L 473.04 145.82 L 474.87 144.78 L 476.75 145.26 L 479.25 143.52 L 481.84 144.86 L 482.83 143.90 L 484.75 143.85 L 488.13 147.76 L 490.81 148.92 L 492.89 148.57 L 496.38 146.67 L 498.08 143.56 L 500.22 142.81 L 500.45 141.44 L 501.92 139.68 L 504.71 139.97 L 506.39 140.96 L 510.09 145.09 L 515.77 142.62 L 517.30 140.75 L 522.61 139.17 L 523.81 141.19 L 527.93 143.42 L 531.27 142.85 L 534.48 143.36 L 536.87 147.35 L 539.54 148.18 L 542.07 147.14 L 544.54 143.55 L 548.38 143.85 L 552.01 143.21 L 555.90 140.04 L 557.47 139.82 L 558.23 138.63 L 560.01 138.46 L 563.58 135.25 L 565.74 134.37 L 567.80 134.90 L 569.05 133.28 L 570.66 133.60 L 572.31 131.73 L 578.08 132.28 L 579.50 131.62 L 580.93 129.67 L 586.02 129.76 L 586.83 127.86 L 589.09 126.12 L 592.10 126.92 L 594.47 125.52 L 596.89 125.68 L 601.58 123.28 L 607.14 125.22 Z" />
    <path class="map-region map-region--ith2" d="M 551.02 241.39 L 549.12 243.57 L 548.60 246.40 L 549.00 247.59 L 557.43 248.72 L 559.29 250.36 L 559.42 254.93 L 556.99 256.68 L 554.14 256.52 L 552.58 260.09 L 553.19 261.45 L 552.12 263.51 L 551.80 270.19 L 549.87 268.20 L 549.05 269.83 L 547.43 270.54 L 545.93 270.16 L 543.40 271.93 L 544.35 273.57 L 547.17 274.99 L 547.56 276.92 L 551.33 278.52 L 551.68 281.30 L 552.88 282.45 L 550.87 286.83 L 552.35 289.52 L 555.55 289.60 L 559.06 288.03 L 559.12 291.79 L 560.11 293.34 L 561.84 292.71 L 564.12 294.18 L 565.28 294.07 L 562.50 299.05 L 564.25 300.25 L 566.48 304.03 L 569.89 304.28 L 569.80 306.57 L 568.25 307.84 L 568.33 310.04 L 565.19 308.90 L 565.16 310.53 L 563.86 312.75 L 564.06 314.23 L 561.32 316.84 L 561.72 317.55 L 559.98 320.12 L 549.79 322.77 L 548.58 323.81 L 544.16 323.68 L 543.23 322.94 L 541.19 325.16 L 540.07 323.23 L 535.31 323.73 L 533.39 326.19 L 531.41 325.37 L 530.40 326.82 L 531.11 331.17 L 533.38 333.55 L 533.40 335.15 L 529.95 335.36 L 528.26 337.29 L 530.24 338.99 L 528.19 341.07 L 531.28 346.47 L 530.69 347.77 L 530.89 350.76 L 528.83 351.76 L 526.07 351.61 L 522.67 352.51 L 522.84 350.76 L 521.43 350.45 L 520.60 351.21 L 518.71 350.29 L 517.09 350.65 L 515.56 343.22 L 513.96 343.25 L 512.28 342.19 L 507.03 342.58 L 506.16 342.10 L 503.41 342.80 L 502.14 344.78 L 500.20 345.13 L 497.07 348.29 L 490.36 348.53 L 486.77 347.94 L 486.72 350.20 L 488.17 354.45 L 487.83 356.06 L 484.64 355.95 L 484.62 359.68 L 482.94 360.58 L 483.48 362.13 L 483.00 362.86 L 481.17 361.34 L 479.34 360.85 L 478.25 358.76 L 476.60 358.83 L 476.52 360.95 L 472.33 361.38 L 470.54 360.62 L 471.00 361.27 L 470.69 363.75 L 469.34 365.06 L 469.99 367.83 L 468.71 367.72 L 467.39 368.90 L 468.55 369.47 L 467.81 373.53 L 465.37 375.14 L 464.98 378.42 L 462.10 380.16 L 460.76 382.69 L 460.97 384.40 L 462.01 384.96 L 461.45 386.39 L 462.68 388.44 L 461.05 388.76 L 458.61 387.69 L 459.51 392.24 L 458.84 395.30 L 459.20 397.73 L 454.65 401.90 L 453.54 403.89 L 453.57 405.92 L 451.71 407.16 L 450.93 406.21 L 447.38 406.69 L 444.16 404.37 L 441.97 401.78 L 439.89 403.96 L 436.36 404.17 L 435.95 401.49 L 435.18 403.03 L 433.17 403.84 L 433.66 405.67 L 432.40 407.34 L 429.56 409.37 L 430.14 405.24 L 428.67 408.24 L 427.02 408.49 L 426.13 410.45 L 425.21 410.72 L 422.91 409.37 L 421.61 407.70 L 423.38 405.44 L 418.18 402.18 L 411.98 401.56 L 412.87 398.22 L 414.66 396.12 L 415.16 392.64 L 416.46 392.13 L 416.67 390.87 L 417.70 390.25 L 416.12 387.21 L 416.71 384.47 L 418.01 382.75 L 417.36 381.56 L 409.28 377.53 L 404.51 378.19 L 401.82 376.42 L 400.43 377.18 L 399.63 378.98 L 398.68 377.53 L 396.40 376.44 L 393.60 377.63 L 391.41 376.75 L 388.31 378.81 L 385.30 378.52 L 385.49 380.54 L 383.39 384.69 L 382.51 383.72 L 379.50 383.94 L 375.44 385.94 L 373.98 387.69 L 369.84 388.18 L 368.27 387.58 L 368.47 386.63 L 367.81 385.74 L 368.22 384.52 L 367.10 383.92 L 369.55 381.88 L 367.46 379.73 L 364.70 380.13 L 363.86 378.96 L 364.39 376.76 L 363.87 369.92 L 362.10 367.60 L 362.82 366.26 L 362.51 365.05 L 364.30 364.10 L 364.56 360.16 L 362.19 358.06 L 362.21 356.30 L 361.48 355.93 L 361.11 354.52 L 361.93 352.03 L 361.72 350.41 L 360.34 350.54 L 356.85 349.29 L 356.79 346.93 L 357.49 342.67 L 359.49 340.18 L 360.96 340.03 L 361.41 338.70 L 361.16 334.96 L 360.47 333.67 L 369.18 323.69 L 370.57 319.56 L 370.05 315.38 L 371.10 314.38 L 372.49 310.54 L 369.27 306.30 L 370.61 302.71 L 373.36 299.31 L 373.16 297.19 L 374.73 295.98 L 375.43 294.36 L 374.07 288.86 L 372.01 287.05 L 374.66 283.97 L 372.65 281.05 L 372.48 278.35 L 366.98 275.14 L 365.64 274.97 L 366.34 272.48 L 369.12 272.55 L 369.59 270.46 L 372.70 268.14 L 378.56 267.52 L 378.82 266.34 L 381.68 263.10 L 381.72 262.02 L 380.18 260.36 L 379.99 254.79 L 380.67 253.72 L 382.52 254.44 L 387.05 252.95 L 388.98 253.46 L 391.07 251.72 L 393.92 251.00 L 397.85 246.43 L 400.84 246.04 L 405.84 254.66 L 414.45 256.14 L 417.40 253.29 L 418.82 254.36 L 421.42 254.56 L 424.47 252.61 L 425.25 250.05 L 427.82 249.16 L 429.11 246.89 L 431.03 246.45 L 434.67 247.82 L 438.04 250.86 L 440.07 253.88 L 442.51 253.79 L 444.11 254.93 L 444.74 254.24 L 442.73 245.78 L 440.97 241.78 L 438.90 240.38 L 442.35 239.84 L 445.68 236.84 L 446.73 242.76 L 449.83 243.89 L 452.42 246.80 L 456.47 245.53 L 457.62 244.03 L 459.35 243.25 L 460.43 241.40 L 463.52 244.31 L 465.13 250.86 L 464.03 252.25 L 464.61 255.83 L 463.35 257.59 L 463.83 259.35 L 463.31 260.10 L 464.35 262.30 L 462.35 269.08 L 463.08 270.12 L 461.42 270.76 L 461.13 271.77 L 462.79 275.15 L 458.95 283.22 L 456.54 285.70 L 454.38 286.19 L 453.65 287.11 L 454.94 287.65 L 457.62 291.26 L 458.87 291.93 L 461.96 292.05 L 462.63 292.74 L 461.64 294.64 L 460.57 293.49 L 460.04 293.69 L 458.53 296.25 L 458.70 297.38 L 459.93 298.63 L 463.20 299.99 L 468.75 297.87 L 475.01 291.68 L 477.20 292.09 L 478.55 289.17 L 477.94 287.54 L 479.68 285.24 L 482.10 284.15 L 481.75 286.18 L 484.30 288.60 L 484.71 290.69 L 488.74 291.48 L 490.05 290.75 L 487.59 285.44 L 484.72 284.52 L 485.32 283.47 L 488.68 282.95 L 489.97 281.62 L 491.13 278.67 L 493.40 278.57 L 498.17 276.60 L 499.30 273.69 L 501.60 272.42 L 501.40 270.75 L 509.73 273.14 L 511.51 274.55 L 512.74 273.41 L 513.81 267.20 L 517.73 266.78 L 518.84 265.74 L 518.90 263.75 L 521.45 258.42 L 521.33 255.18 L 522.70 250.46 L 522.47 249.06 L 524.48 248.18 L 525.07 248.70 L 525.72 246.54 L 523.40 243.34 L 524.22 242.84 L 525.50 243.54 L 528.09 243.64 L 532.51 242.48 L 535.14 240.39 L 539.06 242.19 L 545.01 240.76 L 546.28 238.57 L 548.70 236.63 L 550.50 238.73 L 551.02 241.39 Z" />
  </g>
  <g class="map-states">
    <path class="map-state map-state--at" d="M 356.26 31.40 L 356.99 29.23 L 362.61 32.55 L 366.88 33.41 L 373.88 33.39 L 374.84 29.36 L 377.28 26.43 L 380.25 27.11 L 381.29 28.20 L 390.32 28.78 L 391.08 31.40 L 399.98 33.78 L 400.67 36.56 L 402.63 37.56 L 405.13 36.33 L 407.33 36.39 L 407.78 35.26 L 411.23 35.21 L 413.28 33.77 L 418.51 33.20 L 420.49 36.77 L 422.51 37.02 L 422.19 37.81 L 415.86 40.67 L 415.84 44.00 L 417.99 44.62 L 421.18 43.53 L 424.67 44.10 L 425.15 44.69 L 424.02 46.13 L 424.50 47.01 L 431.46 54.46 L 431.91 56.56 L 429.77 58.08 L 429.90 60.65 L 434.70 61.97 L 450.33 61.63 L 451.37 60.95 L 452.12 58.45 L 461.89 55.19 L 463.18 54.03 L 469.42 54.47 L 469.59 55.29 L 465.43 61.34 L 472.84 61.09 L 474.80 59.53 L 475.18 55.50 L 480.58 52.95 L 482.03 50.77 L 485.63 51.67 L 487.57 50.88 L 493.55 51.71 L 491.61 47.42 L 489.33 47.19 L 488.35 46.11 L 489.03 44.48 L 496.11 37.19 L 497.49 39.07 L 502.53 38.73 L 505.62 39.48 L 507.32 38.43 L 509.65 38.69 L 514.59 37.61 L 516.99 35.30 L 517.10 29.21 L 519.72 24.17 L 521.61 23.51 L 523.40 24.10 L 523.42 21.80 L 526.73 23.11 L 530.01 23.40 L 533.15 22.52 L 543.50 22.21 L 553.35 23.97 L 554.76 19.80 L 561.60 18.50 L 563.20 17.52 L 570.51 16.83 L 571.92 17.41 L 572.81 16.41 L 576.86 15.44 L 578.52 17.97 L 580.47 16.80 L 582.60 17.19 L 583.83 16.47 L 587.11 18.26 L 591.23 17.93 L 594.76 19.14 L 600.32 17.38 L 600.42 20.08 L 604.45 18.33 L 603.28 11.73 L 599.39 4.49 L 598.23 -0.23 L 601.08 -0.14 L 607.27 -3.71 L 610.31 -8.11 L 611.57 -8.68 L 612.56 -6.46 L 610.07 -1.99 L 609.42 0.87 L 611.58 4.24 L 612.49 4.28 L 615.27 2.11 L 623.00 0.59 L 623.28 1.95 L 624.73 1.63 L 626.95 3.20 L 633.47 1.30 L 637.23 1.05 L 637.57 5.07 L 641.00 10.08 L 644.33 12.65 L 645.63 14.84 L 647.50 15.04 L 651.40 12.99 L 656.47 13.72 L 660.65 5.44 L 664.26 4.94 L 667.06 5.91 L 669.25 3.97 L 673.53 3.60 L 676.21 4.71 L 678.73 4.24 L 680.47 5.02 L 682.37 7.19 L 684.44 6.72 L 685.72 5.50 L 685.02 7.98 L 682.59 9.93 L 685.29 13.39 L 686.81 13.63 L 690.60 17.64 L 687.02 20.60 L 687.35 21.60 L 685.31 24.49 L 687.55 29.04 L 690.72 31.31 L 694.87 31.40 L 695.68 34.32 L 699.76 36.28 L 700.18 37.95 L 703.62 41.16 L 711.78 45.63 L 712.52 45.59 L 712.95 43.77 L 714.23 44.25 L 715.59 45.03 L 716.88 47.81 L 720.42 43.32 L 723.04 42.17 L 722.84 35.57 L 720.97 33.76 L 724.48 28.10 L 722.53 25.45 L 722.76 23.80 L 726.14 23.00 L 726.59 22.31 L 725.35 20.02 L 730.32 13.43 L 727.76 7.40 L 727.70 2.52 L 725.53 0.97 L 722.98 -2.57 L 718.84 -4.59 L 717.70 -4.41 L 717.01 -3.02 L 714.68 -1.50 L 710.37 -1.68 L 708.72 -2.43 L 706.59 -1.96 L 703.16 -4.89 L 705.23 -8.76 L 707.11 -9.52 L 708.51 -12.75 L 708.22 -14.29 L 706.28 -14.20 L 708.09 -17.18 L 711.30 -20.15 L 716.85 -28.90 L 716.69 -31.29 L 709.03 -44.80 L 707.59 -49.20 L 705.36 -48.73 L 705.29 -50.85 L 704.06 -52.02 L 698.95 -53.22 L 695.81 -63.31 L 682.66 -75.92 L 681.27 -80.98 L 682.48 -86.55 L 683.80 -86.84 L 686.08 -85.84 L 688.41 -90.55 L 692.20 -92.00 L 693.53 -94.15 L 695.03 -94.82 L 698.46 -101.74 L 710.17 -103.15 L 716.18 -108.77 L 718.32 -112.05 L 727.95 -116.99 L 733.37 -117.07 L 741.50 -120.46 L 752.32 -120.21 L 760.91 -124.93 L 769.32 -133.04 L 774.09 -136.22 L 778.58 -148.80 L 776.93 -153.66 L 781.03 -164.46 L 779.33 -167.83 L 780.00 -169.66 L 778.41 -172.04 L 778.43 -173.73 L 779.92 -174.95 L 781.95 -173.16 L 783.59 -173.48 L 783.84 -175.00 L 785.60 -175.06 L 787.69 -176.94 L 788.22 -180.29 L 791.11 -179.67 L 796.46 -174.82 L 798.18 -174.26 L 799.92 -176.01 L 801.15 -176.13 L 804.79 -173.16 L 809.14 -171.44 L 810.03 -169.43 L 816.25 -165.69 L 819.18 -164.77 L 820.20 -167.21 L 822.12 -168.54 L 821.64 -171.09 L 822.69 -172.21 L 822.27 -173.51 L 823.32 -175.35 L 825.43 -173.28 L 828.11 -176.54 L 829.62 -177.07 L 830.40 -179.44 L 829.86 -181.85 L 831.63 -185.07 L 833.11 -186.16 L 833.08 -189.43 L 831.58 -192.42 L 832.16 -197.47 L 831.52 -201.05 L 834.22 -201.03 L 834.75 -202.69 L 832.25 -202.66 L 828.92 -205.42 L 832.01 -209.19 L 832.58 -213.64 L 834.80 -215.73 L 835.05 -217.18 L 840.34 -216.04 L 851.69 -205.61 L 858.35 -204.24 L 859.32 -201.76 L 860.06 -201.90 L 861.77 -199.00 L 866.09 -197.34 L 865.34 -193.33 L 861.49 -193.13 L 859.21 -190.44 L 862.19 -187.98 L 864.31 -187.97 L 863.68 -185.01 L 865.39 -183.49 L 867.15 -183.38 L 867.44 -181.82 L 871.21 -182.24 L 871.24 -180.82 L 873.89 -180.25 L 876.38 -181.84 L 879.45 -181.46 L 880.82 -180.22 L 883.44 -181.08 L 889.93 -179.39 L 891.83 -177.95 L 895.91 -178.55 L 897.33 -177.08 L 903.45 -174.96 L 904.78 -172.64 L 907.43 -174.87 L 908.36 -177.23 L 909.23 -177.40 L 909.92 -176.34 L 912.44 -176.71 L 913.32 -177.83 L 912.20 -180.74 L 914.95 -181.00 L 918.36 -180.17 L 920.36 -183.24 L 921.02 -186.52 L 922.00 -187.75 L 920.51 -191.07 L 924.01 -191.80 L 927.32 -188.92 L 928.56 -186.13 L 930.68 -186.35 L 932.42 -185.39 L 934.86 -185.29 L 937.05 -183.28 L 943.25 -188.08 L 944.35 -187.71 L 946.23 -183.28 L 949.01 -184.26 L 950.23 -182.87 L 951.55 -178.81 L 957.34 -179.37 L 957.65 -180.87 L 959.41 -182.86 L 958.65 -186.08 L 959.70 -190.17 L 958.43 -192.81 L 960.48 -200.08 L 961.75 -202.40 L 967.78 -205.59 L 970.51 -209.04 L 971.85 -209.53 L 970.87 -212.18 L 972.33 -215.40 L 971.99 -218.46 L 974.18 -219.50 L 974.84 -218.98 L 976.68 -219.50 L 978.67 -218.16 L 981.94 -218.89 L 982.98 -217.05 L 985.89 -216.27 L 987.32 -216.67 L 992.70 -214.62 L 996.08 -217.72 L 996.00 -218.70 L 992.35 -220.86 L 993.13 -225.63 L 994.68 -227.78 L 994.84 -230.81 L 996.55 -231.94 L 995.23 -234.13 L 995.20 -237.45 L 996.51 -238.42 L 996.74 -241.08 L 997.76 -242.65 L 997.50 -246.27 L 996.06 -249.23 L 996.95 -250.79 L 995.75 -254.04 L 995.66 -257.57 L 996.69 -260.53 L 998.64 -261.84 L 998.91 -264.12 L 997.76 -265.34 L 998.37 -266.52 L 999.59 -265.96 L 1001.86 -267.63 L 1004.63 -265.90 L 1007.95 -266.37 L 1008.34 -263.38 L 1013.23 -262.34 L 1014.46 -263.24 L 1017.77 -263.42 L 1021.17 -261.80 L 1020.43 -259.53 L 1021.79 -258.81 L 1022.85 -256.05 L 1021.05 -252.83 L 1021.58 -251.65 L 1023.97 -252.72 L 1025.76 -252.07 L 1027.39 -253.82 L 1030.70 -255.31 L 1033.60 -255.21 L 1035.89 -254.11 L 1038.58 -259.04 L 1038.20 -262.13 L 1039.83 -261.99 L 1040.20 -260.29 L 1042.01 -259.09 L 1043.18 -259.41 L 1044.39 -258.63 L 1045.94 -260.24 L 1050.62 -259.76 L 1059.61 -253.57 L 1062.11 -253.41 L 1063.39 -252.55 L 1065.10 -253.56 L 1069.71 -250.51 L 1071.28 -246.26 L 1078.00 -244.02 L 1080.38 -242.44 L 1085.66 -242.69 L 1087.92 -240.28 L 1091.25 -239.58 L 1096.76 -234.19 L 1099.24 -235.19 L 1105.38 -233.51 L 1109.19 -238.04 L 1115.90 -237.42 L 1117.32 -238.48 L 1118.29 -238.27 L 1119.19 -236.61 L 1117.99 -235.49 L 1118.28 -234.95 L 1121.19 -233.63 L 1122.28 -234.01 L 1122.27 -235.02 L 1122.96 -234.70 L 1123.87 -231.61 L 1125.44 -232.76 L 1126.74 -230.32 L 1128.48 -230.79 L 1130.05 -229.66 L 1130.26 -227.32 L 1131.47 -227.15 L 1132.22 -228.37 L 1134.51 -226.94 L 1133.17 -224.06 L 1139.54 -218.68 L 1153.29 -212.17 L 1156.73 -212.45 L 1161.35 -211.42 L 1162.27 -212.39 L 1177.12 -210.26 L 1178.07 -211.04 L 1182.76 -210.68 L 1184.25 -209.50 L 1187.04 -209.09 L 1188.63 -211.69 L 1190.33 -210.57 L 1190.00 -209.43 L 1191.11 -208.42 L 1193.83 -208.61 L 1195.15 -210.37 L 1196.10 -210.17 L 1197.90 -211.34 L 1199.67 -214.98 L 1201.61 -215.97 L 1201.81 -218.47 L 1203.55 -222.81 L 1205.15 -223.78 L 1205.18 -224.55 L 1205.77 -224.94 L 1207.86 -223.39 L 1212.82 -223.41 L 1213.58 -222.72 L 1216.55 -225.83 L 1219.99 -221.77 L 1222.54 -221.25 L 1223.96 -219.45 L 1228.93 -219.02 L 1229.93 -219.99 L 1231.26 -220.04 L 1234.21 -218.49 L 1235.64 -216.70 L 1236.20 -212.71 L 1235.45 -211.04 L 1236.58 -208.30 L 1239.09 -209.94 L 1242.34 -210.37 L 1244.35 -208.74 L 1245.72 -208.98 L 1247.58 -206.07 L 1249.59 -205.23 L 1251.70 -205.35 L 1253.26 -204.05 L 1254.07 -205.01 L 1256.76 -204.88 L 1258.02 -205.85 L 1259.24 -205.03 L 1262.77 -205.22 L 1264.30 -207.13 L 1265.51 -205.97 L 1267.59 -206.11 L 1269.80 -201.30 L 1268.76 -198.35 L 1270.54 -196.62 L 1270.13 -192.68 L 1271.30 -190.23 L 1270.02 -187.22 L 1272.97 -185.90 L 1273.19 -183.87 L 1272.10 -182.18 L 1272.77 -179.16 L 1272.31 -176.93 L 1273.49 -172.57 L 1274.76 -171.04 L 1273.24 -166.59 L 1270.40 -166.14 L 1269.20 -164.14 L 1269.29 -161.16 L 1266.74 -161.40 L 1265.75 -157.48 L 1264.57 -157.57 L 1261.86 -154.40 L 1261.91 -152.56 L 1260.36 -151.80 L 1260.45 -148.98 L 1261.98 -145.84 L 1260.38 -143.73 L 1260.92 -141.26 L 1260.32 -138.52 L 1258.06 -138.15 L 1259.12 -133.79 L 1259.75 -131.64 L 1263.42 -131.36 L 1263.40 -129.32 L 1268.31 -126.88 L 1266.61 -124.00 L 1267.39 -121.18 L 1270.25 -116.21 L 1274.31 -115.16 L 1275.36 -114.20 L 1273.84 -108.88 L 1278.07 -99.20 L 1278.05 -95.71 L 1283.28 -91.79 L 1285.27 -89.32 L 1289.48 -89.93 L 1291.01 -86.29 L 1290.19 -85.73 L 1292.55 -82.20 L 1294.29 -81.06 L 1294.56 -79.33 L 1291.88 -77.80 L 1292.39 -76.56 L 1291.78 -75.12 L 1293.31 -73.96 L 1291.32 -72.35 L 1293.66 -70.19 L 1291.11 -67.24 L 1294.15 -64.97 L 1297.10 -66.99 L 1299.23 -65.22 L 1301.72 -64.89 L 1304.12 -62.15 L 1294.79 -54.91 L 1297.91 -52.89 L 1294.42 -47.60 L 1297.18 -45.84 L 1295.04 -41.62 L 1295.92 -40.05 L 1293.44 -35.35 L 1292.39 -35.98 L 1287.21 -33.92 L 1283.97 -34.05 L 1282.96 -32.30 L 1288.45 -28.06 L 1288.03 -26.01 L 1289.73 -25.00 L 1291.52 -22.11 L 1288.74 -18.98 L 1290.74 -14.25 L 1291.40 -5.79 L 1294.55 -1.67 L 1269.07 2.49 L 1263.47 2.09 L 1262.61 -4.39 L 1258.75 -0.91 L 1257.01 3.45 L 1245.96 3.77 L 1242.18 -4.42 L 1242.00 -7.16 L 1232.76 -8.59 L 1230.89 -9.65 L 1229.75 -11.97 L 1226.33 -12.17 L 1217.67 -10.37 L 1217.68 -8.76 L 1215.94 -7.43 L 1218.01 -4.54 L 1216.56 -2.58 L 1213.80 -2.35 L 1210.48 -0.69 L 1207.57 2.15 L 1207.13 3.64 L 1205.92 3.74 L 1204.28 0.83 L 1203.35 0.75 L 1202.61 5.28 L 1199.71 7.03 L 1202.24 8.70 L 1207.79 10.14 L 1210.49 12.29 L 1211.77 12.32 L 1213.01 11.09 L 1218.00 13.67 L 1221.09 16.20 L 1223.54 16.73 L 1229.84 14.67 L 1232.27 15.62 L 1233.35 18.85 L 1235.10 19.40 L 1234.43 20.90 L 1235.48 24.43 L 1233.83 26.61 L 1235.33 28.44 L 1237.31 28.50 L 1238.55 30.90 L 1241.09 32.50 L 1239.66 33.73 L 1239.68 35.87 L 1237.68 38.25 L 1234.65 39.82 L 1233.60 38.88 L 1232.31 40.47 L 1234.75 45.50 L 1233.59 49.27 L 1231.44 51.36 L 1229.31 51.96 L 1227.75 54.38 L 1223.21 56.18 L 1223.69 56.47 L 1222.22 57.08 L 1221.53 59.27 L 1217.64 59.66 L 1216.38 58.87 L 1213.38 58.71 L 1212.09 59.84 L 1212.05 61.55 L 1210.45 62.83 L 1210.23 61.78 L 1209.35 61.88 L 1208.68 60.99 L 1208.68 59.13 L 1204.96 58.17 L 1203.15 59.56 L 1204.61 63.52 L 1203.99 64.98 L 1204.67 67.06 L 1204.06 69.50 L 1201.44 70.34 L 1203.58 73.03 L 1205.60 73.99 L 1209.01 84.32 L 1207.71 86.18 L 1207.77 88.82 L 1206.15 90.62 L 1204.98 90.18 L 1200.97 91.13 L 1202.43 91.80 L 1202.71 94.50 L 1201.70 99.19 L 1199.42 99.38 L 1199.06 100.25 L 1200.74 104.31 L 1203.68 103.84 L 1205.61 107.22 L 1205.14 109.59 L 1203.69 111.24 L 1204.34 113.03 L 1213.16 111.60 L 1214.80 114.25 L 1214.93 116.08 L 1210.77 116.85 L 1210.74 119.46 L 1208.58 119.86 L 1208.26 121.15 L 1207.14 120.79 L 1205.77 122.67 L 1207.11 124.61 L 1206.94 126.71 L 1208.19 126.80 L 1209.00 127.91 L 1212.13 128.41 L 1213.55 129.39 L 1213.70 130.48 L 1211.84 131.68 L 1203.91 133.74 L 1202.53 134.50 L 1202.33 135.93 L 1203.17 136.97 L 1205.66 135.46 L 1211.80 140.91 L 1211.73 141.66 L 1209.37 142.05 L 1208.23 143.03 L 1203.84 141.28 L 1203.09 143.25 L 1200.13 142.96 L 1198.39 141.03 L 1192.73 141.97 L 1191.68 140.55 L 1189.64 139.92 L 1188.41 142.60 L 1185.72 141.35 L 1183.01 142.12 L 1181.86 139.46 L 1181.03 139.15 L 1179.25 144.80 L 1179.17 149.26 L 1176.24 149.12 L 1174.64 150.67 L 1174.83 152.48 L 1170.89 154.80 L 1169.84 153.52 L 1168.08 154.04 L 1165.47 160.63 L 1163.23 161.35 L 1158.89 167.05 L 1154.22 169.87 L 1153.16 169.31 L 1151.40 171.55 L 1149.46 172.29 L 1148.42 174.56 L 1146.19 174.28 L 1144.92 175.60 L 1143.85 174.29 L 1141.06 176.11 L 1139.65 175.23 L 1138.32 177.13 L 1139.72 180.14 L 1138.16 192.21 L 1140.76 199.14 L 1144.21 200.40 L 1144.39 202.49 L 1146.10 205.68 L 1145.56 211.55 L 1141.72 209.72 L 1139.72 206.51 L 1132.70 204.88 L 1128.09 200.87 L 1122.83 198.68 L 1116.40 198.26 L 1112.35 199.49 L 1107.81 202.67 L 1105.22 203.08 L 1103.47 202.73 L 1100.66 203.46 L 1097.31 202.88 L 1094.40 201.32 L 1091.20 201.44 L 1091.17 204.08 L 1089.25 204.45 L 1088.11 206.40 L 1086.93 206.81 L 1084.48 206.31 L 1083.28 204.74 L 1082.05 205.91 L 1079.47 206.54 L 1077.87 208.34 L 1076.09 208.72 L 1077.02 212.56 L 1075.90 213.52 L 1076.60 214.81 L 1075.56 216.86 L 1074.73 216.22 L 1070.27 219.95 L 1068.00 218.79 L 1066.20 220.32 L 1065.23 220.30 L 1064.39 219.70 L 1063.14 214.83 L 1060.59 214.57 L 1058.69 213.30 L 1058.15 211.81 L 1053.02 212.47 L 1048.65 211.91 L 1044.22 213.11 L 1040.54 212.33 L 1038.21 214.01 L 1032.36 214.89 L 1026.78 213.58 L 1024.75 211.65 L 1022.82 211.94 L 1019.48 210.92 L 1017.17 212.63 L 1014.33 210.99 L 1011.52 212.43 L 1010.59 213.78 L 1008.15 212.37 L 1004.99 212.47 L 1001.31 214.69 L 996.22 222.48 L 994.67 217.83 L 992.69 216.30 L 989.35 219.60 L 988.01 218.94 L 987.56 222.41 L 985.64 221.79 L 984.79 220.67 L 981.95 220.65 L 980.45 221.75 L 979.86 224.07 L 976.75 227.87 L 975.89 231.78 L 974.02 234.19 L 974.85 235.22 L 973.92 236.20 L 973.33 241.30 L 968.50 243.22 L 967.21 242.31 L 964.92 242.31 L 963.51 243.49 L 962.21 242.35 L 960.75 244.72 L 958.71 243.41 L 957.89 246.82 L 956.39 248.16 L 956.69 250.16 L 954.09 249.98 L 953.01 253.20 L 946.79 255.46 L 942.14 256.04 L 940.63 257.52 L 940.15 259.84 L 940.90 261.09 L 940.65 264.26 L 939.47 267.90 L 937.54 269.05 L 936.32 267.90 L 936.18 266.04 L 933.89 261.14 L 931.29 258.12 L 929.12 258.63 L 927.08 260.71 L 925.37 260.50 L 924.49 259.32 L 920.14 258.65 L 918.61 256.24 L 919.55 255.10 L 918.34 254.06 L 906.36 255.95 L 904.16 257.10 L 901.55 257.20 L 897.72 254.65 L 891.22 256.93 L 888.69 254.79 L 886.78 255.44 L 884.71 254.56 L 882.33 256.62 L 879.38 256.01 L 876.97 253.26 L 874.73 248.00 L 863.53 244.67 L 860.70 246.81 L 858.64 246.98 L 854.28 243.55 L 853.09 243.55 L 849.70 240.96 L 845.42 238.99 L 841.12 238.73 L 837.17 240.37 L 834.10 239.58 L 831.31 241.81 L 828.39 241.80 L 826.26 239.81 L 820.84 239.71 L 818.87 238.58 L 812.01 238.64 L 804.32 234.65 L 800.16 233.90 L 797.66 235.41 L 795.97 232.93 L 793.59 232.38 L 789.92 233.69 L 788.03 231.77 L 787.71 229.76 L 783.26 231.56 L 776.30 231.33 L 774.19 230.68 L 773.98 228.82 L 769.17 227.26 L 768.70 229.42 L 765.00 229.24 L 761.81 232.61 L 758.50 231.07 L 754.80 230.86 L 753.32 231.47 L 751.97 231.08 L 750.31 232.52 L 749.34 232.33 L 749.10 231.01 L 747.29 229.12 L 744.07 228.62 L 741.97 227.45 L 740.30 225.18 L 737.10 225.39 L 728.86 222.68 L 721.04 223.68 L 719.66 222.66 L 714.82 223.00 L 710.39 221.72 L 709.06 222.33 L 706.46 220.85 L 700.69 221.59 L 697.63 221.05 L 695.79 221.94 L 693.10 220.78 L 693.27 217.36 L 692.49 216.72 L 690.99 217.12 L 689.35 216.50 L 687.36 214.32 L 684.99 213.54 L 682.18 213.38 L 680.24 215.39 L 678.56 215.98 L 676.32 213.03 L 672.80 211.39 L 668.83 211.31 L 666.05 212.32 L 664.84 211.72 L 664.38 210.49 L 662.79 210.45 L 660.42 211.51 L 656.88 211.53 L 655.77 212.51 L 652.53 210.92 L 648.31 207.12 L 644.15 207.36 L 642.76 206.75 L 642.21 205.51 L 637.66 204.83 L 628.71 198.22 L 625.74 187.47 L 619.11 185.56 L 615.64 185.81 L 614.84 184.03 L 616.37 181.84 L 615.40 179.21 L 618.38 175.54 L 618.41 174.02 L 617.19 173.47 L 616.23 170.85 L 616.48 169.19 L 614.40 167.80 L 613.67 165.17 L 609.38 164.11 L 606.12 167.41 L 603.62 164.63 L 601.94 160.89 L 598.19 160.57 L 595.57 159.34 L 596.91 158.45 L 599.01 154.58 L 597.53 151.93 L 594.87 150.64 L 593.98 149.35 L 594.67 145.63 L 593.53 144.90 L 592.40 140.45 L 596.03 136.93 L 598.47 137.91 L 604.20 136.39 L 606.04 130.12 L 609.26 127.85 L 607.14 125.22 L 601.58 123.28 L 596.89 125.68 L 594.47 125.52 L 592.10 126.92 L 589.09 126.12 L 586.83 127.86 L 586.02 129.76 L 580.93 129.67 L 578.08 132.28 L 572.31 131.73 L 570.66 133.60 L 569.05 133.28 L 567.80 134.90 L 565.74 134.37 L 563.58 135.25 L 560.01 138.46 L 558.23 138.63 L 557.47 139.82 L 555.90 140.04 L 552.01 143.21 L 544.54 143.55 L 542.07 147.14 L 539.54 148.18 L 536.87 147.35 L 534.48 143.36 L 531.27 142.85 L 527.93 143.42 L 523.81 141.19 L 522.61 139.17 L 517.30 140.75 L 515.77 142.62 L 510.09 145.09 L 506.39 140.96 L 504.71 139.97 L 501.92 139.68 L 500.22 142.81 L 498.08 143.56 L 496.38 146.67 L 490.81 148.92 L 488.13 147.76 L 484.75 143.85 L 482.83 143.90 L 481.84 144.86 L 479.25 143.52 L 476.75 145.26 L 474.87 144.78 L 471.14 145.90 L 468.16 148.01 L 465.22 148.18 L 463.40 149.30 L 461.74 147.96 L 458.77 149.32 L 457.24 148.81 L 457.15 152.04 L 457.78 153.01 L 455.86 155.26 L 453.75 156.43 L 450.27 155.90 L 449.48 158.71 L 447.82 159.50 L 448.22 164.44 L 444.23 171.49 L 444.12 174.60 L 445.66 177.91 L 442.02 180.64 L 440.08 181.24 L 437.18 189.41 L 435.88 188.30 L 433.25 188.97 L 427.42 187.57 L 423.28 187.46 L 417.41 189.79 L 411.27 186.21 L 409.38 187.62 L 407.92 187.31 L 403.81 183.40 L 399.56 185.24 L 395.95 184.77 L 395.35 182.84 L 397.68 181.89 L 400.68 177.81 L 399.29 175.75 L 394.93 174.66 L 393.83 172.93 L 391.03 171.90 L 390.45 168.96 L 387.06 167.10 L 384.76 168.98 L 380.97 169.35 L 376.99 170.88 L 373.13 173.86 L 370.99 174.28 L 370.72 172.34 L 366.40 173.13 L 363.34 172.67 L 360.56 170.61 L 359.13 171.27 L 359.31 167.44 L 358.59 165.19 L 361.36 159.02 L 361.92 154.47 L 352.53 149.82 L 352.89 146.65 L 347.79 141.76 L 345.33 143.66 L 342.09 143.77 L 339.04 151.14 L 336.39 152.33 L 336.19 154.12 L 337.47 155.85 L 337.44 157.03 L 335.29 157.14 L 334.73 158.09 L 326.94 155.72 L 326.90 158.15 L 324.81 163.07 L 325.92 165.41 L 325.34 168.94 L 320.34 168.97 L 316.56 172.06 L 310.11 172.67 L 307.66 174.11 L 305.17 170.12 L 300.46 169.76 L 300.04 166.94 L 295.25 161.97 L 293.43 162.28 L 291.35 161.52 L 289.68 158.91 L 287.92 159.55 L 283.43 159.13 L 280.40 156.99 L 275.31 155.11 L 275.59 150.85 L 274.77 149.28 L 277.40 144.09 L 277.10 141.72 L 274.90 140.40 L 274.75 139.29 L 275.75 138.32 L 275.16 137.61 L 273.12 137.29 L 271.91 138.52 L 268.90 138.96 L 262.21 134.07 L 257.38 134.30 L 256.35 133.33 L 252.97 132.93 L 251.47 132.03 L 251.59 131.16 L 249.76 131.10 L 247.25 129.42 L 242.80 129.85 L 241.48 131.39 L 238.89 131.00 L 237.31 129.55 L 238.13 127.68 L 237.94 125.77 L 240.88 124.90 L 241.26 123.52 L 241.12 121.44 L 239.26 119.46 L 241.01 116.07 L 239.90 114.92 L 239.22 111.13 L 237.47 111.79 L 236.13 109.26 L 233.48 107.31 L 231.32 107.35 L 232.47 106.08 L 232.52 103.80 L 234.17 100.41 L 232.05 97.55 L 229.94 96.52 L 231.60 92.82 L 226.53 87.03 L 228.31 85.46 L 230.56 81.03 L 234.66 77.51 L 237.03 70.67 L 239.77 67.66 L 244.93 66.76 L 246.64 64.39 L 246.71 62.57 L 243.61 59.86 L 242.65 53.65 L 244.71 50.39 L 239.54 49.09 L 237.34 46.55 L 236.68 48.09 L 235.58 47.91 L 234.01 44.49 L 230.92 41.18 L 230.48 32.04 L 247.66 35.80 L 254.98 33.70 L 257.43 26.24 L 258.31 25.89 L 259.41 23.12 L 261.32 21.40 L 264.92 21.20 L 267.91 22.86 L 268.31 24.73 L 267.63 26.40 L 268.14 28.30 L 266.86 30.58 L 271.65 32.17 L 275.09 34.74 L 275.68 31.10 L 278.66 31.56 L 281.48 34.38 L 284.53 32.92 L 287.19 33.42 L 288.26 31.16 L 287.87 35.87 L 291.99 39.86 L 291.21 41.05 L 292.74 43.98 L 298.79 42.96 L 300.32 45.46 L 300.22 46.82 L 303.05 49.46 L 305.56 48.79 L 306.09 52.31 L 307.57 55.10 L 306.29 57.13 L 303.47 57.85 L 302.99 59.36 L 304.80 60.89 L 304.51 62.07 L 306.91 69.97 L 309.70 65.88 L 312.74 67.44 L 316.25 67.03 L 316.75 63.91 L 318.23 63.45 L 318.63 62.49 L 322.78 64.63 L 324.80 63.24 L 325.92 64.23 L 326.10 66.31 L 323.56 69.99 L 321.15 75.66 L 322.89 78.17 L 322.52 79.60 L 319.77 82.12 L 318.12 82.10 L 317.11 85.31 L 317.99 87.12 L 321.28 85.85 L 325.95 86.91 L 330.37 83.48 L 332.53 83.47 L 334.58 81.27 L 337.36 79.83 L 339.35 80.09 L 342.07 77.52 L 341.74 76.88 L 343.34 73.52 L 347.21 69.72 L 347.78 66.83 L 348.81 65.62 L 351.05 65.18 L 352.21 63.99 L 354.49 64.78 L 353.49 62.57 L 354.72 58.20 L 356.83 57.13 L 357.75 55.12 L 359.85 54.07 L 358.67 50.04 L 359.05 46.75 L 358.30 44.03 L 355.44 43.59 L 353.85 39.80 L 355.05 37.58 L 354.92 35.45 L 355.89 32.51 L 356.26 31.40 Z" />
    <path class="map-state map-state--si" d="M 1174.32 166.94 L 1177.53 167.81 L 1181.33 167.64 L 1182.62 170.12 L 1189.20 174.22 L 1189.60 176.08 L 1188.26 178.29 L 1188.18 181.59 L 1184.39 182.89 L 1184.26 186.86 L 1186.78 186.88 L 1185.33 191.60 L 1188.95 195.32 L 1190.59 199.52 L 1192.54 198.16 L 1193.73 200.10 L 1192.23 201.81 L 1194.34 203.01 L 1200.41 203.71 L 1199.47 211.08 L 1197.32 210.91 L 1196.33 210.01 L 1194.63 212.43 L 1195.65 216.01 L 1197.29 216.38 L 1200.05 220.04 L 1203.08 220.71 L 1204.20 222.96 L 1208.25 227.01 L 1208.49 229.71 L 1210.08 230.43 L 1211.98 229.97 L 1213.47 233.13 L 1213.40 235.78 L 1215.24 236.84 L 1214.33 239.45 L 1215.34 240.65 L 1214.30 242.17 L 1220.34 245.58 L 1222.79 247.81 L 1224.46 248.08 L 1221.21 248.93 L 1218.43 247.31 L 1216.96 247.98 L 1215.36 247.12 L 1212.99 247.64 L 1212.39 247.19 L 1213.16 245.18 L 1209.30 243.05 L 1208.67 241.51 L 1205.72 240.16 L 1205.55 239.27 L 1202.45 239.90 L 1202.13 238.02 L 1200.80 236.80 L 1199.86 237.47 L 1198.41 236.54 L 1197.88 237.68 L 1197.00 235.38 L 1196.15 235.90 L 1192.85 234.42 L 1193.53 232.94 L 1192.42 232.32 L 1190.63 234.37 L 1190.06 233.66 L 1188.77 234.87 L 1188.13 237.42 L 1186.57 237.22 L 1184.39 238.24 L 1182.83 240.69 L 1177.96 240.14 L 1177.80 242.07 L 1174.40 243.71 L 1174.35 246.25 L 1175.67 247.04 L 1176.67 249.06 L 1179.02 260.38 L 1180.26 260.63 L 1183.54 264.14 L 1182.76 267.87 L 1177.54 268.26 L 1173.86 267.61 L 1172.72 266.04 L 1171.32 267.59 L 1170.58 266.61 L 1167.10 267.85 L 1166.74 266.35 L 1164.97 266.40 L 1164.75 265.38 L 1160.80 262.43 L 1152.66 265.79 L 1148.39 264.77 L 1147.46 267.03 L 1150.25 270.43 L 1151.01 274.36 L 1149.92 275.70 L 1149.10 275.27 L 1147.56 276.57 L 1145.13 276.41 L 1142.11 281.82 L 1140.46 282.10 L 1138.89 280.96 L 1138.09 281.76 L 1137.03 281.38 L 1135.52 283.79 L 1129.63 286.36 L 1126.21 286.12 L 1124.13 287.68 L 1122.31 287.91 L 1120.57 290.35 L 1110.73 291.98 L 1111.98 295.60 L 1110.21 300.06 L 1108.42 301.69 L 1105.69 302.47 L 1104.98 299.90 L 1103.49 299.67 L 1102.12 300.59 L 1101.64 299.47 L 1094.26 298.50 L 1090.33 300.80 L 1089.73 302.10 L 1090.55 305.58 L 1088.77 306.88 L 1088.65 308.21 L 1084.42 311.62 L 1085.55 313.47 L 1083.29 314.93 L 1085.24 316.86 L 1084.63 321.83 L 1085.80 324.18 L 1087.04 324.60 L 1086.76 326.11 L 1087.54 327.11 L 1088.75 327.55 L 1090.54 326.86 L 1091.87 328.31 L 1092.15 330.12 L 1093.46 329.65 L 1097.00 331.83 L 1099.89 332.51 L 1102.13 335.70 L 1100.30 337.13 L 1100.04 340.40 L 1098.82 341.52 L 1099.70 342.41 L 1099.55 343.41 L 1097.91 344.92 L 1099.19 352.45 L 1098.70 360.47 L 1095.07 363.93 L 1096.17 368.31 L 1095.32 368.82 L 1095.05 371.34 L 1099.13 375.61 L 1097.38 375.25 L 1096.32 376.38 L 1092.90 376.93 L 1089.63 380.54 L 1087.84 378.56 L 1079.87 374.42 L 1077.99 377.63 L 1076.28 375.83 L 1075.24 375.70 L 1074.57 379.00 L 1073.26 380.29 L 1070.23 380.59 L 1069.82 379.35 L 1068.50 378.72 L 1066.58 379.49 L 1066.30 381.16 L 1064.87 381.58 L 1065.99 385.46 L 1064.52 386.27 L 1058.55 385.91 L 1056.07 386.53 L 1053.02 389.12 L 1050.09 389.89 L 1041.13 394.54 L 1035.62 400.05 L 1037.00 403.18 L 1039.14 403.99 L 1040.58 407.21 L 1041.76 405.72 L 1044.23 409.99 L 1044.77 405.71 L 1047.05 402.88 L 1049.08 402.91 L 1050.13 406.71 L 1048.67 410.31 L 1051.25 408.50 L 1056.34 415.90 L 1053.96 417.92 L 1051.26 416.44 L 1047.53 416.39 L 1048.56 417.76 L 1047.37 418.72 L 1041.84 419.36 L 1042.30 422.72 L 1040.08 423.23 L 1038.25 424.85 L 1040.95 428.50 L 1041.93 438.95 L 1043.15 439.53 L 1043.49 441.13 L 1046.12 443.89 L 1053.29 448.32 L 1049.75 450.60 L 1047.69 454.60 L 1045.41 455.36 L 1037.28 452.95 L 1033.31 455.48 L 1031.38 458.52 L 1030.93 460.64 L 1028.08 460.79 L 1026.18 459.05 L 1023.90 461.59 L 1020.90 460.90 L 1018.44 457.24 L 1016.42 456.53 L 1013.60 453.51 L 1011.22 452.55 L 1010.95 449.46 L 1007.05 447.43 L 1002.69 448.66 L 1000.55 446.44 L 996.80 446.38 L 989.68 440.30 L 988.05 440.38 L 986.81 442.54 L 986.49 449.60 L 985.30 450.73 L 981.47 451.53 L 980.38 452.65 L 973.60 453.92 L 970.09 445.38 L 968.90 445.68 L 968.72 444.59 L 966.22 444.47 L 966.12 443.49 L 964.83 443.44 L 961.55 440.02 L 959.46 439.01 L 957.15 438.93 L 956.63 440.71 L 955.13 440.24 L 954.59 439.13 L 955.16 434.96 L 956.50 433.19 L 955.03 429.41 L 953.24 427.83 L 949.83 427.13 L 946.12 422.91 L 942.70 420.68 L 942.27 419.64 L 943.26 412.68 L 942.10 411.88 L 939.96 412.20 L 938.20 410.92 L 937.64 415.00 L 934.43 421.18 L 932.15 423.42 L 928.66 424.18 L 929.34 427.47 L 928.01 433.26 L 928.29 435.78 L 926.69 438.40 L 919.26 443.71 L 916.46 443.99 L 914.24 445.22 L 913.31 447.02 L 909.23 448.93 L 907.08 448.94 L 903.31 451.86 L 902.34 449.64 L 900.56 449.63 L 898.04 447.96 L 895.20 449.13 L 891.66 444.80 L 889.62 445.47 L 887.52 448.27 L 886.75 451.80 L 881.99 450.03 L 879.46 449.83 L 877.42 450.81 L 873.44 449.45 L 870.57 449.50 L 867.92 448.85 L 863.61 445.98 L 859.56 442.08 L 858.00 441.80 L 857.79 444.15 L 854.28 442.88 L 852.52 444.69 L 852.88 446.37 L 855.65 448.21 L 857.11 451.38 L 855.75 452.29 L 855.62 454.65 L 853.58 456.49 L 851.10 454.80 L 845.56 455.39 L 842.44 458.76 L 841.78 460.89 L 837.34 460.78 L 836.29 459.47 L 831.58 459.18 L 831.31 457.83 L 829.88 457.20 L 830.32 454.53 L 827.19 452.68 L 824.63 452.70 L 816.79 455.39 L 815.89 454.81 L 812.44 457.31 L 807.43 454.21 L 801.65 452.55 L 799.20 450.22 L 800.12 449.14 L 799.19 446.19 L 800.35 444.87 L 800.35 443.66 L 797.07 442.72 L 796.62 439.95 L 801.22 440.60 L 802.17 439.92 L 801.57 438.52 L 803.45 437.81 L 807.40 439.30 L 809.17 438.73 L 809.38 437.42 L 810.92 437.90 L 814.42 436.16 L 818.04 437.00 L 819.90 435.49 L 820.02 434.43 L 821.15 434.10 L 820.46 433.30 L 821.46 432.47 L 821.36 431.61 L 816.69 427.81 L 818.62 426.65 L 822.13 426.14 L 827.00 428.86 L 832.55 429.31 L 836.51 428.64 L 837.15 427.17 L 838.78 426.05 L 839.23 423.73 L 846.09 419.20 L 839.94 414.45 L 834.06 407.38 L 834.07 403.63 L 830.92 400.47 L 829.39 397.19 L 827.97 395.96 L 824.87 395.08 L 823.99 394.01 L 821.76 394.01 L 810.65 385.21 L 804.84 385.56 L 800.70 383.46 L 800.82 381.12 L 799.53 377.93 L 797.83 376.20 L 797.87 374.23 L 800.12 369.90 L 799.34 368.71 L 800.60 366.03 L 802.28 365.06 L 806.48 357.09 L 805.94 354.71 L 807.13 347.96 L 805.97 346.90 L 804.18 347.66 L 799.17 347.06 L 796.50 350.77 L 794.21 350.60 L 792.96 351.59 L 791.25 351.18 L 788.95 348.68 L 787.32 348.38 L 783.89 343.31 L 784.46 342.18 L 786.74 341.04 L 788.47 336.21 L 786.79 334.75 L 786.72 332.83 L 791.38 330.88 L 793.38 327.88 L 797.45 326.37 L 798.48 324.54 L 807.32 316.79 L 810.48 309.01 L 809.44 307.18 L 805.98 305.66 L 803.29 307.18 L 802.82 306.24 L 799.60 305.93 L 796.86 306.74 L 795.44 302.93 L 793.85 301.83 L 791.27 301.52 L 791.02 300.27 L 787.70 300.80 L 785.90 299.35 L 779.36 298.96 L 779.47 301.30 L 776.28 302.77 L 774.42 300.87 L 775.23 299.63 L 774.77 298.51 L 776.07 297.39 L 773.93 295.27 L 772.12 290.56 L 771.74 287.17 L 769.52 284.09 L 773.39 283.71 L 773.93 282.57 L 775.38 282.48 L 775.59 280.06 L 776.68 279.21 L 778.40 279.19 L 779.80 276.49 L 778.31 272.73 L 778.58 271.64 L 780.11 271.01 L 782.84 271.32 L 784.62 269.77 L 789.61 267.90 L 789.50 266.92 L 790.94 266.02 L 792.34 266.30 L 793.18 265.17 L 796.50 263.62 L 797.92 261.56 L 798.70 257.59 L 800.81 255.67 L 807.59 254.29 L 809.23 255.33 L 813.10 255.87 L 814.33 254.68 L 815.05 252.21 L 814.55 249.77 L 816.52 247.15 L 815.81 243.39 L 817.57 241.69 L 817.35 238.60 L 818.87 238.58 L 820.84 239.71 L 826.26 239.81 L 829.32 241.87 L 831.31 241.81 L 834.10 239.58 L 837.17 240.37 L 841.12 238.73 L 845.42 238.99 L 849.70 240.96 L 853.09 243.55 L 854.28 243.55 L 858.64 246.98 L 860.70 246.81 L 863.53 244.67 L 874.73 248.00 L 876.97 253.26 L 879.38 256.01 L 882.33 256.62 L 884.71 254.56 L 886.78 255.44 L 888.69 254.79 L 891.22 256.93 L 897.72 254.65 L 901.55 257.20 L 904.16 257.10 L 906.36 255.95 L 918.34 254.06 L 919.55 255.10 L 918.61 256.24 L 920.14 258.65 L 924.49 259.32 L 925.37 260.50 L 927.08 260.71 L 929.12 258.63 L 931.29 258.12 L 933.89 261.14 L 936.18 266.04 L 936.32 267.90 L 937.54 269.05 L 939.47 267.90 L 940.65 264.26 L 940.90 261.09 L 940.15 259.84 L 940.63 257.52 L 942.14 256.04 L 946.79 255.46 L 953.01 253.20 L 954.09 249.98 L 956.69 250.16 L 956.39 248.16 L 957.89 246.82 L 958.71 243.41 L 960.75 244.72 L 962.21 242.35 L 963.51 243.49 L 964.92 242.31 L 967.21 242.31 L 968.50 243.22 L 973.33 241.30 L 973.92 236.20 L 974.85 235.22 L 974.02 234.19 L 975.89 231.78 L 976.75 227.87 L 979.86 224.07 L 980.45 221.75 L 981.95 220.65 L 984.79 220.67 L 985.64 221.79 L 987.56 222.41 L 988.01 218.94 L 989.35 219.60 L 992.69 216.30 L 994.67 217.83 L 996.22 222.48 L 1001.31 214.69 L 1004.99 212.47 L 1008.15 212.37 L 1010.59 213.78 L 1011.52 212.43 L 1014.33 210.99 L 1017.17 212.63 L 1019.48 210.92 L 1022.82 211.94 L 1024.75 211.65 L 1026.78 213.58 L 1032.36 214.89 L 1038.21 214.01 L 1040.54 212.33 L 1044.22 213.11 L 1048.65 211.91 L 1053.02 212.47 L 1058.15 211.81 L 1058.69 213.30 L 1060.59 214.57 L 1063.14 214.83 L 1064.39 219.70 L 1065.23 220.30 L 1066.20 220.32 L 1068.00 218.79 L 1070.27 219.95 L 1074.73 216.22 L 1075.56 216.86 L 1076.60 214.81 L 1075.90 213.52 L 1077.02 212.56 L 1076.09 208.72 L 1077.87 208.34 L 1079.47 206.54 L 1082.05 205.91 L 1083.28 204.74 L 1084.48 206.31 L 1086.93 206.81 L 1088.11 206.40 L 1089.25 204.45 L 1091.17 204.08 L 1091.20 201.44 L 1094.40 201.32 L 1097.31 202.88 L 1100.66 203.46 L 1103.47 202.73 L 1105.22 203.08 L 1107.81 202.67 L 1112.35 199.49 L 1116.40 198.26 L 1122.83 198.68 L 1128.09 200.87 L 1132.70 204.88 L 1139.72 206.51 L 1141.72 209.72 L 1145.56 211.55 L 1146.10 205.68 L 1144.39 202.49 L 1144.21 200.40 L 1140.76 199.14 L 1138.16 192.21 L 1139.72 180.14 L 1138.32 177.13 L 1139.65 175.23 L 1141.06 176.11 L 1143.85 174.29 L 1144.92 175.60 L 1146.19 174.28 L 1148.42 174.56 L 1149.46 172.29 L 1151.40 171.55 L 1153.16 169.31 L 1154.22 169.87 L 1156.26 168.40 L 1158.13 170.73 L 1162.16 171.37 L 1163.54 170.31 L 1164.93 170.83 L 1166.27 169.26 L 1170.85 168.40 L 1173.70 166.94 L 1174.32 166.94 Z" />
  </g>
  <g class="map-labels" aria-hidden="true">
    <text class="map-label" x="248" y="408">Lombardia</text>
    <text class="map-label map-label--small" x="498" y="188">
      <tspan x="498" dy="0">Trentino-Alto</tspan>
      <tspan x="498" dy="28">Adige</tspan>
    </text>
    <text class="map-label" x="554" y="406">Veneto</text>
    <text class="map-label map-label--small" x="736" y="286">
      <tspan x="736" dy="0">Friuli-Venezia</tspan>
      <tspan x="736" dy="28">Giulia</tspan>
    </text>
    <text class="map-label map-label--small" x="430" y="682">
      Emilia-Romagna
    </text>
    <text class="map-label" x="996" y="320">Slovenia</text>
  </g>
</svg>
